<svg width="191" height="54" viewBox="0 0 191 54" fill="none" xmlns="http://www.w3.org/2000/svg">
<path d="M0 21.8453L21.0435 3.89596C27.02 -1.2019 35.7249 -1.23321 41.7111 3.42848C36.2705 1.31781 29.8482 2.18364 25.128 6.20987L4.08448 24.1592L0 21.8453Z" fill="#EF7C00"/>
<path d="M7.74527 26.2329L28.7886 8.28368C34.7651 3.18573 43.47 3.15453 49.4562 7.81621C44.0155 5.70554 37.5935 6.57137 32.8729 10.5976L11.8297 28.547L7.74527 26.2329Z" fill="#EF7C00"/>
<path d="M15.4893 30.621L36.5327 12.6713C42.509 7.57352 51.214 7.54221 57.2002 12.2038C51.7598 10.0932 45.3375 10.9589 40.6171 14.9853L19.5738 32.9349L15.4893 30.621Z" fill="#EF7C00"/>
<path d="M67.0646 31.5805L46.0205 49.5306C40.044 54.6283 31.3392 54.6597 25.3528 49.9983C30.7934 52.1086 37.2157 51.2431 41.9361 47.2167L62.9804 29.2666L67.0646 31.5805Z" fill="#C70B6F"/>
<path d="M59.3206 27.1931L38.2766 45.1431C32.3 50.2409 23.5949 50.2723 17.6089 45.6104C23.0493 47.7212 29.4716 46.8553 34.1918 42.8292L55.2362 24.8789L59.3206 27.1931Z" fill="#C70B6F"/>
<path d="M51.5752 22.8046L30.531 40.7549C24.5544 45.853 15.8495 45.8841 9.86356 41.2225C15.304 43.3333 21.7263 42.4674 26.4465 38.441L47.4907 20.4907L51.5752 22.8046Z" fill="#C70B6F"/>
<path d="M98.7563 22.4389C98.7563 17.1435 96.3751 13.8906 88.3788 13.8906C85.1809 13.8906 81.8704 14.6379 79.3723 15.52L79.9214 20.7677C82.0208 19.5906 85.0191 18.8552 87.268 18.8552C90.8664 18.8552 92.1154 20.1788 92.1154 22.7287V24.0532C83.6702 24.0532 77.7725 27.1419 77.7725 32.9775C77.7725 36.9009 80.3544 39.5354 84.8519 39.5354C88.5503 39.5354 91.7239 37.2725 92.9233 34.5266L92.8651 34.7922C92.6653 36.0673 92.2449 38.1129 92.2449 39.5354H98.7563V22.4389ZM92.1154 28.712C92.1154 31.6539 89.9665 34.5961 86.818 34.5961C84.9697 34.5961 83.8699 33.5667 83.8699 31.9969C83.8699 30.0357 85.369 28.1231 92.1154 28.1231V28.712Z" fill="#39434D"/>
<path d="M121.545 38.3897L121.033 32.9622C119.649 33.6598 117.754 34.0076 116.01 34.0076C111.655 34.0076 109.964 31.1196 109.964 26.8874C109.964 22.2061 112.065 19.2186 116.215 19.2186C117.856 19.2186 119.444 19.6168 120.828 20.1151L121.494 14.5874C119.854 14.1391 118.009 13.8906 116.267 13.8906C107.248 13.8906 103.097 19.8164 103.097 27.5348C103.097 35.9499 107.504 39.5354 114.576 39.5354C117.292 39.5354 119.804 39.0369 121.545 38.3897Z" fill="#39434D"/>
<path d="M161.7 21.5039C161.7 17.2947 159.89 13.8906 154.263 13.8906C150.193 13.8906 147.28 15.8741 145.772 18.7281L145.721 18.6801C145.974 17.4223 146.506 15.0032 146.506 13.8906H139.994V39.5354H146.506V26.8466C146.506 22.6382 148.988 19.0669 152.254 19.0669C154.615 19.0669 155.188 20.4574 155.188 22.9731V39.5354H161.7V21.5039Z" fill="#39434D"/>
<path d="M191 26.2421C191 17.7596 186.53 13.8906 179.603 13.8906C172.184 13.8906 167.125 19.4461 167.125 27.1344C167.125 35.9144 171.594 39.5354 178.522 39.5354C185.842 39.5354 191 33.9797 191 26.2421ZM184.515 26.5888C184.515 31.5994 182.158 34.1289 179.062 34.1289C175.427 34.1289 173.608 31.5494 173.608 26.4895C173.608 21.4306 176.36 19.2477 179.161 19.2477C182.844 19.2477 184.515 21.8271 184.515 26.5888Z" fill="#39434D"/>
<path d="M133.483 39.5354V13.8906H126.972V39.5354H133.483Z" fill="#39434D"/>
<path d="M133.483 7.45917C133.483 5.6806 132.009 4.27441 130.207 4.27441C128.405 4.27441 126.972 5.72227 126.972 7.45917C126.972 9.23838 128.405 10.6856 130.207 10.6856C132.009 10.6856 133.483 9.23838 133.483 7.45917Z" fill="#39434D"/>
</svg>
