<svg width="416" height="401" viewBox="0 0 416 401" fill="none" xmlns="http://www.w3.org/2000/svg">
<path d="M206 75C231.344 75 256.339 80.9099 279 92.2603C301.66 103.611 321.362 120.089 336.539 140.386C351.717 160.683 361.952 184.239 366.433 209.184C370.913 234.129 369.515 259.775 362.349 284.085L206 238V75Z" fill="#8C2C3A"/>
<path d="M362.349 284.085C351.676 320.296 328.765 351.679 297.527 372.877C266.289 394.075 228.662 403.773 191.07 400.315L206 238L362.349 284.085Z" fill="#C1384C"/>
<path d="M191.07 400.315C155.392 397.033 121.789 382.087 95.4585 357.79C69.1278 333.492 51.5364 301.196 45.4047 265.896L206 238L191.07 400.315Z" fill="#D95165"/>
<path d="M45.4047 265.896C39.9284 234.368 43.853 201.926 56.6895 172.614C69.5259 143.302 90.7062 118.416 117.59 101.06L206 238L45.4047 265.896Z" fill="#F28595"/>
<path d="M117.59 101.06C133.33 90.8978 150.704 83.5256 168.949 79.2669L206 238L117.59 101.06Z" fill="#FFAEBA"/>
<path d="M168.949 79.2669C176.231 77.567 183.623 76.3702 191.07 75.6852L206 238L168.949 79.2669Z" fill="#FCCFD5"/>
<path d="M191.07 75.6852C196.033 75.2286 201.015 75 206 75V238L191.07 75.6852Z" fill="#FDF4F5"/>
<path d="M112.835 12.632C113.939 12.632 114.931 12.848 115.811 13.28C116.691 13.696 117.379 14.296 117.875 15.08C118.371 15.864 118.619 16.768 118.619 17.792C118.619 18.88 118.347 19.84 117.803 20.672C117.259 21.488 116.523 22.12 115.595 22.568C114.667 23.016 113.627 23.24 112.475 23.24C110.171 23.24 108.379 22.52 107.099 21.08C105.835 19.64 105.203 17.576 105.203 14.888C105.203 13 105.547 11.392 106.235 10.064C106.923 8.72 107.883 7.704 109.115 7.016C110.363 6.312 111.803 5.96 113.435 5.96C114.299 5.96 115.107 6.056 115.859 6.248C116.627 6.424 117.291 6.688 117.851 7.04L116.699 9.392C115.867 8.848 114.803 8.576 113.507 8.576C111.891 8.576 110.627 9.072 109.715 10.064C108.803 11.056 108.347 12.488 108.347 14.36V14.384C108.843 13.808 109.475 13.376 110.243 13.088C111.011 12.784 111.875 12.632 112.835 12.632ZM112.307 20.792C113.283 20.792 114.075 20.536 114.683 20.024C115.291 19.496 115.595 18.8 115.595 17.936C115.595 17.056 115.291 16.36 114.683 15.848C114.075 15.336 113.259 15.08 112.235 15.08C111.227 15.08 110.403 15.352 109.763 15.896C109.139 16.44 108.827 17.128 108.827 17.96C108.827 18.776 109.131 19.456 109.739 20C110.363 20.528 111.219 20.792 112.307 20.792ZM124.005 15.248C122.805 15.248 121.837 14.824 121.101 13.976C120.365 13.128 119.997 12.016 119.997 10.64C119.997 9.264 120.365 8.152 121.101 7.304C121.837 6.456 122.805 6.032 124.005 6.032C125.205 6.032 126.173 6.456 126.909 7.304C127.661 8.136 128.037 9.248 128.037 10.64C128.037 12.032 127.661 13.152 126.909 14C126.173 14.832 125.205 15.248 124.005 15.248ZM134.085 6.2H136.437L124.965 23H122.613L134.085 6.2ZM124.005 13.568C124.661 13.568 125.165 13.312 125.517 12.8C125.885 12.288 126.069 11.568 126.069 10.64C126.069 9.712 125.885 8.992 125.517 8.48C125.165 7.968 124.661 7.712 124.005 7.712C123.381 7.712 122.877 7.976 122.493 8.504C122.125 9.016 121.941 9.728 121.941 10.64C121.941 11.552 122.125 12.272 122.493 12.8C122.877 13.312 123.381 13.568 124.005 13.568ZM135.021 23.168C133.821 23.168 132.853 22.744 132.117 21.896C131.381 21.048 131.013 19.936 131.013 18.56C131.013 17.184 131.381 16.072 132.117 15.224C132.853 14.376 133.821 13.952 135.021 13.952C136.221 13.952 137.189 14.376 137.925 15.224C138.677 16.072 139.053 17.184 139.053 18.56C139.053 19.936 138.677 21.048 137.925 21.896C137.189 22.744 136.221 23.168 135.021 23.168ZM135.021 21.488C135.661 21.488 136.165 21.232 136.533 20.72C136.901 20.192 137.085 19.472 137.085 18.56C137.085 17.648 136.901 16.936 136.533 16.424C136.165 15.896 135.661 15.632 135.021 15.632C134.381 15.632 133.877 15.888 133.509 16.4C133.141 16.912 132.957 17.632 132.957 18.56C132.957 19.488 133.141 20.208 133.509 20.72C133.877 21.232 134.381 21.488 135.021 21.488Z" fill="#8C2C3A"/>
<path d="M378.249 86.168C379.129 86.568 379.801 87.112 380.265 87.8C380.745 88.472 380.985 89.264 380.985 90.176C380.985 91.2 380.697 92.096 380.121 92.864C379.561 93.632 378.761 94.224 377.721 94.64C376.681 95.04 375.473 95.24 374.097 95.24C372.721 95.24 371.513 95.04 370.473 94.64C369.449 94.224 368.657 93.632 368.097 92.864C367.537 92.096 367.257 91.2 367.257 90.176C367.257 89.264 367.489 88.472 367.953 87.8C368.417 87.112 369.081 86.568 369.945 86.168C369.273 85.8 368.753 85.32 368.385 84.728C368.033 84.12 367.857 83.424 367.857 82.64C367.857 81.696 368.113 80.872 368.625 80.168C369.153 79.464 369.889 78.92 370.833 78.536C371.777 78.152 372.865 77.96 374.097 77.96C375.345 77.96 376.441 78.152 377.385 78.536C378.329 78.92 379.065 79.464 379.593 80.168C380.121 80.872 380.385 81.696 380.385 82.64C380.385 83.424 380.201 84.112 379.833 84.704C379.465 85.296 378.937 85.784 378.249 86.168ZM374.097 80.408C373.121 80.408 372.345 80.616 371.769 81.032C371.209 81.448 370.929 82.032 370.929 82.784C370.929 83.504 371.209 84.08 371.769 84.512C372.345 84.928 373.121 85.136 374.097 85.136C375.089 85.136 375.873 84.928 376.449 84.512C377.025 84.08 377.313 83.504 377.313 82.784C377.313 82.032 377.017 81.448 376.425 81.032C375.849 80.616 375.073 80.408 374.097 80.408ZM374.097 92.792C375.249 92.792 376.161 92.552 376.833 92.072C377.505 91.592 377.841 90.928 377.841 90.08C377.841 89.248 377.505 88.592 376.833 88.112C376.161 87.632 375.249 87.392 374.097 87.392C372.945 87.392 372.041 87.632 371.385 88.112C370.729 88.592 370.401 89.248 370.401 90.08C370.401 90.928 370.729 91.592 371.385 92.072C372.041 92.552 372.945 92.792 374.097 92.792ZM389.298 78.2V95H386.178V80.816H382.626V78.2H389.298ZM396.854 87.248C395.654 87.248 394.686 86.824 393.95 85.976C393.214 85.128 392.846 84.016 392.846 82.64C392.846 81.264 393.214 80.152 393.95 79.304C394.686 78.456 395.654 78.032 396.854 78.032C398.054 78.032 399.022 78.456 399.758 79.304C400.51 80.136 400.886 81.248 400.886 82.64C400.886 84.032 400.51 85.152 399.758 86C399.022 86.832 398.054 87.248 396.854 87.248ZM406.934 78.2H409.286L397.814 95H395.462L406.934 78.2ZM396.854 85.568C397.51 85.568 398.014 85.312 398.366 84.8C398.734 84.288 398.918 83.568 398.918 82.64C398.918 81.712 398.734 80.992 398.366 80.48C398.014 79.968 397.51 79.712 396.854 79.712C396.23 79.712 395.726 79.976 395.342 80.504C394.974 81.016 394.79 81.728 394.79 82.64C394.79 83.552 394.974 84.272 395.342 84.8C395.726 85.312 396.23 85.568 396.854 85.568ZM407.87 95.168C406.67 95.168 405.702 94.744 404.966 93.896C404.23 93.048 403.862 91.936 403.862 90.56C403.862 89.184 404.23 88.072 404.966 87.224C405.702 86.376 406.67 85.952 407.87 85.952C409.07 85.952 410.038 86.376 410.774 87.224C411.526 88.072 411.902 89.184 411.902 90.56C411.902 91.936 411.526 93.048 410.774 93.896C410.038 94.744 409.07 95.168 407.87 95.168ZM407.87 93.488C408.51 93.488 409.014 93.232 409.382 92.72C409.75 92.192 409.934 91.472 409.934 90.56C409.934 89.648 409.75 88.936 409.382 88.424C409.014 87.896 408.51 87.632 407.87 87.632C407.23 87.632 406.726 87.888 406.358 88.4C405.99 88.912 405.806 89.632 405.806 90.56C405.806 91.488 405.99 92.208 406.358 92.72C406.726 93.232 407.23 93.488 407.87 93.488Z" fill="#8C2C3A"/>
<path d="M196.187 19.184H193.211V23H190.187V19.184H180.971V17.024L189.251 6.2H192.587L184.787 16.544H190.283V13.16H193.211V16.544H196.187V19.184ZM200.997 15.248C199.797 15.248 198.829 14.824 198.093 13.976C197.357 13.128 196.989 12.016 196.989 10.64C196.989 9.264 197.357 8.152 198.093 7.304C198.829 6.456 199.797 6.032 200.997 6.032C202.197 6.032 203.165 6.456 203.901 7.304C204.653 8.136 205.029 9.248 205.029 10.64C205.029 12.032 204.653 13.152 203.901 14C203.165 14.832 202.197 15.248 200.997 15.248ZM211.077 6.2H213.429L201.957 23H199.605L211.077 6.2ZM200.997 13.568C201.653 13.568 202.157 13.312 202.509 12.8C202.877 12.288 203.061 11.568 203.061 10.64C203.061 9.712 202.877 8.992 202.509 8.48C202.157 7.968 201.653 7.712 200.997 7.712C200.373 7.712 199.869 7.976 199.485 8.504C199.117 9.016 198.933 9.728 198.933 10.64C198.933 11.552 199.117 12.272 199.485 12.8C199.869 13.312 200.373 13.568 200.997 13.568ZM212.013 23.168C210.813 23.168 209.845 22.744 209.109 21.896C208.373 21.048 208.005 19.936 208.005 18.56C208.005 17.184 208.373 16.072 209.109 15.224C209.845 14.376 210.813 13.952 212.013 13.952C213.213 13.952 214.181 14.376 214.917 15.224C215.669 16.072 216.045 17.184 216.045 18.56C216.045 19.936 215.669 21.048 214.917 21.896C214.181 22.744 213.213 23.168 212.013 23.168ZM212.013 21.488C212.653 21.488 213.157 21.232 213.525 20.72C213.893 20.192 214.077 19.472 214.077 18.56C214.077 17.648 213.893 16.936 213.525 16.424C213.157 15.896 212.653 15.632 212.013 15.632C211.373 15.632 210.869 15.888 210.501 16.4C210.133 16.912 209.949 17.632 209.949 18.56C209.949 19.488 210.133 20.208 210.501 20.72C210.869 21.232 211.373 21.488 212.013 21.488Z" fill="#8C2C3A"/>
<path d="M188 90L146.829 39H103" stroke="#8C2C3A"/>
<path d="M58.0988 35.2V52H54.9788V37.816H51.4268V35.2H58.0988ZM67.1675 41.704C69.5355 41.704 71.2875 42.168 72.4235 43.096C73.5595 44.008 74.1275 45.256 74.1275 46.84C74.1275 47.848 73.8795 48.76 73.3835 49.576C72.8875 50.392 72.1435 51.04 71.1515 51.52C70.1595 52 68.9355 52.24 67.4795 52.24C66.2795 52.24 65.1195 52.072 63.9995 51.736C62.8795 51.384 61.9355 50.904 61.1675 50.296L62.4875 47.872C63.1115 48.384 63.8555 48.792 64.7195 49.096C65.5995 49.384 66.5035 49.528 67.4315 49.528C68.5355 49.528 69.3995 49.304 70.0235 48.856C70.6635 48.392 70.9835 47.76 70.9835 46.96C70.9835 46.096 70.6395 45.448 69.9515 45.016C69.2795 44.568 68.1195 44.344 66.4715 44.344H62.4155L63.2795 35.2H73.1435V37.816H65.9195L65.5595 41.704H67.1675ZM79.9167 44.248C78.7167 44.248 77.7487 43.824 77.0127 42.976C76.2767 42.128 75.9087 41.016 75.9087 39.64C75.9087 38.264 76.2767 37.152 77.0127 36.304C77.7487 35.456 78.7167 35.032 79.9167 35.032C81.1167 35.032 82.0847 35.456 82.8207 36.304C83.5727 37.136 83.9487 38.248 83.9487 39.64C83.9487 41.032 83.5727 42.152 82.8207 43C82.0847 43.832 81.1167 44.248 79.9167 44.248ZM89.9967 35.2H92.3487L80.8767 52H78.5247L89.9967 35.2ZM79.9167 42.568C80.5727 42.568 81.0767 42.312 81.4287 41.8C81.7967 41.288 81.9807 40.568 81.9807 39.64C81.9807 38.712 81.7967 37.992 81.4287 37.48C81.0767 36.968 80.5727 36.712 79.9167 36.712C79.2927 36.712 78.7887 36.976 78.4047 37.504C78.0367 38.016 77.8527 38.728 77.8527 39.64C77.8527 40.552 78.0367 41.272 78.4047 41.8C78.7887 42.312 79.2927 42.568 79.9167 42.568ZM90.9327 52.168C89.7327 52.168 88.7647 51.744 88.0287 50.896C87.2927 50.048 86.9247 48.936 86.9247 47.56C86.9247 46.184 87.2927 45.072 88.0287 44.224C88.7647 43.376 89.7327 42.952 90.9327 42.952C92.1327 42.952 93.1007 43.376 93.8367 44.224C94.5887 45.072 94.9647 46.184 94.9647 47.56C94.9647 48.936 94.5887 50.048 93.8367 50.896C93.1007 51.744 92.1327 52.168 90.9327 52.168ZM90.9327 50.488C91.5727 50.488 92.0767 50.232 92.4447 49.72C92.8127 49.192 92.9967 48.472 92.9967 47.56C92.9967 46.648 92.8127 45.936 92.4447 45.424C92.0767 44.896 91.5727 44.632 90.9327 44.632C90.2927 44.632 89.7887 44.888 89.4207 45.4C89.0527 45.912 88.8687 46.632 88.8687 47.56C88.8687 48.488 89.0527 49.208 89.4207 49.72C89.7887 50.232 90.2927 50.488 90.9327 50.488Z" fill="#8C2C3A"/>
<path d="M139 119L97.8295 68H54" stroke="#8C2C3A"/>
<path d="M323 162L364.171 111L415.5 111" stroke="#8C2C3A"/>
<line x1="198.5" y1="86" x2="198.5" y2="39" stroke="#8C2C3A"/>
<path d="M15.4297 126.704C17.7977 126.704 19.5497 127.168 20.6857 128.096C21.8217 129.008 22.3897 130.256 22.3897 131.84C22.3897 132.848 22.1417 133.76 21.6457 134.576C21.1497 135.392 20.4057 136.04 19.4137 136.52C18.4217 137 17.1977 137.24 15.7417 137.24C14.5417 137.24 13.3817 137.072 12.2617 136.736C11.1417 136.384 10.1977 135.904 9.42966 135.296L10.7497 132.872C11.3737 133.384 12.1177 133.792 12.9817 134.096C13.8617 134.384 14.7657 134.528 15.6937 134.528C16.7977 134.528 17.6617 134.304 18.2857 133.856C18.9257 133.392 19.2457 132.76 19.2457 131.96C19.2457 131.096 18.9017 130.448 18.2137 130.016C17.5417 129.568 16.3817 129.344 14.7337 129.344H10.6777L11.5417 120.2H21.4057V122.816H14.1817L13.8217 126.704H15.4297ZM30.4773 120.2V137H27.3573V122.816H23.8053V120.2H30.4773ZM38.0339 129.248C36.8339 129.248 35.8659 128.824 35.1299 127.976C34.3939 127.128 34.0259 126.016 34.0259 124.64C34.0259 123.264 34.3939 122.152 35.1299 121.304C35.8659 120.456 36.8339 120.032 38.0339 120.032C39.2339 120.032 40.2019 120.456 40.9379 121.304C41.6899 122.136 42.0659 123.248 42.0659 124.64C42.0659 126.032 41.6899 127.152 40.9379 128C40.2019 128.832 39.2339 129.248 38.0339 129.248ZM48.1139 120.2H50.4659L38.9939 137H36.6419L48.1139 120.2ZM38.0339 127.568C38.6899 127.568 39.1939 127.312 39.5459 126.8C39.9139 126.288 40.0979 125.568 40.0979 124.64C40.0979 123.712 39.9139 122.992 39.5459 122.48C39.1939 121.968 38.6899 121.712 38.0339 121.712C37.4099 121.712 36.9059 121.976 36.5219 122.504C36.1539 123.016 35.9699 123.728 35.9699 124.64C35.9699 125.552 36.1539 126.272 36.5219 126.8C36.9059 127.312 37.4099 127.568 38.0339 127.568ZM49.0499 137.168C47.8499 137.168 46.8819 136.744 46.1459 135.896C45.4099 135.048 45.0419 133.936 45.0419 132.56C45.0419 131.184 45.4099 130.072 46.1459 129.224C46.8819 128.376 47.8499 127.952 49.0499 127.952C50.2499 127.952 51.2179 128.376 51.9539 129.224C52.7059 130.072 53.0819 131.184 53.0819 132.56C53.0819 133.936 52.7059 135.048 51.9539 135.896C51.2179 136.744 50.2499 137.168 49.0499 137.168ZM49.0499 135.488C49.6899 135.488 50.1939 135.232 50.5619 134.72C50.9299 134.192 51.1139 133.472 51.1139 132.56C51.1139 131.648 50.9299 130.936 50.5619 130.424C50.1939 129.896 49.6899 129.632 49.0499 129.632C48.4099 129.632 47.9059 129.888 47.5379 130.4C47.1699 130.912 46.9859 131.632 46.9859 132.56C46.9859 133.488 47.1699 134.208 47.5379 134.72C47.9059 135.232 48.4099 135.488 49.0499 135.488Z" fill="#8C2C3A"/>
<path d="M6.79294 364.704C9.16094 364.704 10.9129 365.168 12.0489 366.096C13.1849 367.008 13.7529 368.256 13.7529 369.84C13.7529 370.848 13.5049 371.76 13.0089 372.576C12.5129 373.392 11.7689 374.04 10.7769 374.52C9.78494 375 8.56094 375.24 7.10494 375.24C5.90494 375.24 4.74494 375.072 3.62494 374.736C2.50494 374.384 1.56094 373.904 0.792938 373.296L2.11294 370.872C2.73694 371.384 3.48094 371.792 4.34494 372.096C5.22494 372.384 6.12894 372.528 7.05694 372.528C8.16094 372.528 9.02494 372.304 9.64894 371.856C10.2889 371.392 10.6089 370.76 10.6089 369.96C10.6089 369.096 10.2649 368.448 9.57694 368.016C8.90494 367.568 7.74494 367.344 6.09694 367.344H2.04094L2.90494 358.2H12.7689V360.816H5.54494L5.18494 364.704H6.79294ZM28.3999 358.2V360.288L21.8719 375H18.5359L24.8479 360.84H18.2479V363.696H15.3439V358.2H28.3999ZM34.6706 367.248C33.4706 367.248 32.5026 366.824 31.7666 365.976C31.0306 365.128 30.6626 364.016 30.6626 362.64C30.6626 361.264 31.0306 360.152 31.7666 359.304C32.5026 358.456 33.4706 358.032 34.6706 358.032C35.8706 358.032 36.8386 358.456 37.5746 359.304C38.3266 360.136 38.7026 361.248 38.7026 362.64C38.7026 364.032 38.3266 365.152 37.5746 366C36.8386 366.832 35.8706 367.248 34.6706 367.248ZM44.7506 358.2H47.1026L35.6306 375H33.2786L44.7506 358.2ZM34.6706 365.568C35.3266 365.568 35.8306 365.312 36.1826 364.8C36.5506 364.288 36.7346 363.568 36.7346 362.64C36.7346 361.712 36.5506 360.992 36.1826 360.48C35.8306 359.968 35.3266 359.712 34.6706 359.712C34.0466 359.712 33.5426 359.976 33.1586 360.504C32.7906 361.016 32.6066 361.728 32.6066 362.64C32.6066 363.552 32.7906 364.272 33.1586 364.8C33.5426 365.312 34.0466 365.568 34.6706 365.568ZM45.6866 375.168C44.4866 375.168 43.5186 374.744 42.7826 373.896C42.0466 373.048 41.6786 371.936 41.6786 370.56C41.6786 369.184 42.0466 368.072 42.7826 367.224C43.5186 366.376 44.4866 365.952 45.6866 365.952C46.8866 365.952 47.8546 366.376 48.5906 367.224C49.3426 368.072 49.7186 369.184 49.7186 370.56C49.7186 371.936 49.3426 373.048 48.5906 373.896C47.8546 374.744 46.8866 375.168 45.6866 375.168ZM45.6866 373.488C46.3266 373.488 46.8306 373.232 47.1986 372.72C47.5666 372.192 47.7506 371.472 47.7506 370.56C47.7506 369.648 47.5666 368.936 47.1986 368.424C46.8306 367.896 46.3266 367.632 45.6866 367.632C45.0466 367.632 44.5426 367.888 44.1746 368.4C43.8066 368.912 43.6226 369.632 43.6226 370.56C43.6226 371.488 43.8066 372.208 44.1746 372.72C44.5426 373.232 45.0466 373.488 45.6866 373.488Z" fill="#8C2C3A"/>
<path d="M343.786 364.632C344.89 364.632 345.882 364.848 346.762 365.28C347.642 365.696 348.33 366.296 348.826 367.08C349.322 367.864 349.57 368.768 349.57 369.792C349.57 370.88 349.298 371.84 348.754 372.672C348.21 373.488 347.474 374.12 346.546 374.568C345.618 375.016 344.578 375.24 343.426 375.24C341.122 375.24 339.33 374.52 338.05 373.08C336.786 371.64 336.154 369.576 336.154 366.888C336.154 365 336.498 363.392 337.186 362.064C337.874 360.72 338.834 359.704 340.066 359.016C341.314 358.312 342.754 357.96 344.386 357.96C345.25 357.96 346.058 358.056 346.81 358.248C347.578 358.424 348.242 358.688 348.802 359.04L347.65 361.392C346.818 360.848 345.754 360.576 344.458 360.576C342.842 360.576 341.578 361.072 340.666 362.064C339.754 363.056 339.298 364.488 339.298 366.36V366.384C339.794 365.808 340.426 365.376 341.194 365.088C341.962 364.784 342.826 364.632 343.786 364.632ZM343.258 372.792C344.234 372.792 345.026 372.536 345.634 372.024C346.242 371.496 346.546 370.8 346.546 369.936C346.546 369.056 346.242 368.36 345.634 367.848C345.026 367.336 344.21 367.08 343.186 367.08C342.178 367.08 341.354 367.352 340.714 367.896C340.09 368.44 339.778 369.128 339.778 369.96C339.778 370.776 340.082 371.456 340.69 372C341.314 372.528 342.17 372.792 343.258 372.792ZM358.689 375.24C357.345 375.24 356.145 374.904 355.089 374.232C354.033 373.544 353.201 372.552 352.593 371.256C351.985 369.944 351.681 368.392 351.681 366.6C351.681 364.808 351.985 363.264 352.593 361.968C353.201 360.656 354.033 359.664 355.089 358.992C356.145 358.304 357.345 357.96 358.689 357.96C360.033 357.96 361.233 358.304 362.289 358.992C363.361 359.664 364.201 360.656 364.809 361.968C365.417 363.264 365.721 364.808 365.721 366.6C365.721 368.392 365.417 369.944 364.809 371.256C364.201 372.552 363.361 373.544 362.289 374.232C361.233 374.904 360.033 375.24 358.689 375.24ZM358.689 372.528C359.889 372.528 360.833 372.032 361.521 371.04C362.225 370.048 362.577 368.568 362.577 366.6C362.577 364.632 362.225 363.152 361.521 362.16C360.833 361.168 359.889 360.672 358.689 360.672C357.505 360.672 356.561 361.168 355.857 362.16C355.169 363.152 354.825 364.632 354.825 366.6C354.825 368.568 355.169 370.048 355.857 371.04C356.561 372.032 357.505 372.528 358.689 372.528ZM372.053 367.248C370.853 367.248 369.885 366.824 369.149 365.976C368.413 365.128 368.045 364.016 368.045 362.64C368.045 361.264 368.413 360.152 369.149 359.304C369.885 358.456 370.853 358.032 372.053 358.032C373.253 358.032 374.221 358.456 374.957 359.304C375.709 360.136 376.085 361.248 376.085 362.64C376.085 364.032 375.709 365.152 374.957 366C374.221 366.832 373.253 367.248 372.053 367.248ZM382.133 358.2H384.485L373.013 375H370.661L382.133 358.2ZM372.053 365.568C372.709 365.568 373.213 365.312 373.565 364.8C373.933 364.288 374.117 363.568 374.117 362.64C374.117 361.712 373.933 360.992 373.565 360.48C373.213 359.968 372.709 359.712 372.053 359.712C371.429 359.712 370.925 359.976 370.541 360.504C370.173 361.016 369.989 361.728 369.989 362.64C369.989 363.552 370.173 364.272 370.541 364.8C370.925 365.312 371.429 365.568 372.053 365.568ZM383.069 375.168C381.869 375.168 380.901 374.744 380.165 373.896C379.429 373.048 379.061 371.936 379.061 370.56C379.061 369.184 379.429 368.072 380.165 367.224C380.901 366.376 381.869 365.952 383.069 365.952C384.269 365.952 385.237 366.376 385.973 367.224C386.725 368.072 387.101 369.184 387.101 370.56C387.101 371.936 386.725 373.048 385.973 373.896C385.237 374.744 384.269 375.168 383.069 375.168ZM383.069 373.488C383.709 373.488 384.213 373.232 384.581 372.72C384.949 372.192 385.133 371.472 385.133 370.56C385.133 369.648 384.949 368.936 384.581 368.424C384.213 367.896 383.709 367.632 383.069 367.632C382.429 367.632 381.925 367.888 381.557 368.4C381.189 368.912 381.005 369.632 381.005 370.56C381.005 371.488 381.189 372.208 381.557 372.72C381.925 373.232 382.429 373.488 383.069 373.488Z" fill="#8C2C3A"/>
<path d="M105 213L56.5641 153H5" stroke="#8C2C3A"/>
<path d="M102 331L53.5641 391H2" stroke="#8C2C3A"/>
<path d="M286 331L334.436 391H386" stroke="#8C2C3A"/>
</svg>
