<svg width="463" height="438" viewBox="0 0 463 438" fill="none" xmlns="http://www.w3.org/2000/svg">
<path d="M244.634 80.4644C284.437 88.7519 319.779 111.443 343.881 144.185C367.983 176.928 379.147 217.416 375.234 257.884C371.32 298.351 352.603 335.95 322.673 363.466C292.744 390.983 253.708 406.481 213.055 406.987L211 242L244.634 80.4644Z" fill="#8c2c3a"/>
<path d="M213.055 406.987C190.741 407.265 168.602 403.014 147.978 394.49C127.354 385.966 108.673 373.348 93.0655 357.397C77.4582 341.447 65.2487 322.496 57.1755 301.691C49.1024 280.887 45.3334 258.661 46.0965 236.358L211 242L213.055 406.987Z" fill="#c1384c"/>
<path d="M46.0965 236.358C47.0374 208.859 54.8399 182.033 68.794 158.319C82.7481 134.606 102.411 114.758 125.993 100.583L211 242L46.0965 236.358Z" fill="#d95165"/>
<path d="M125.993 100.583C149.574 86.4078 176.327 78.3547 203.815 77.1565L211 242L125.993 100.583Z" fill="#f28595"/>
<path d="M203.815 77.1565C217.506 76.5598 231.218 77.671 244.634 80.4644L211 242L203.815 77.1565Z" fill="#ffaeba"/>
<path d="M427.263 133.184H424.287V137H421.263V133.184H412.047V131.024L420.327 120.2H423.663L415.863 130.544H421.359V127.16H424.287V130.544H427.263V133.184ZM440.65 120.2V122.288L434.122 137H430.786L437.098 122.84H430.498V125.696H427.594V120.2H440.65ZM446.921 129.248C445.721 129.248 444.753 128.824 444.017 127.976C443.281 127.128 442.913 126.016 442.913 124.64C442.913 123.264 443.281 122.152 444.017 121.304C444.753 120.456 445.721 120.032 446.921 120.032C448.121 120.032 449.089 120.456 449.825 121.304C450.577 122.136 450.953 123.248 450.953 124.64C450.953 126.032 450.577 127.152 449.825 128C449.089 128.832 448.121 129.248 446.921 129.248ZM457.001 120.2H459.353L447.881 137H445.529L457.001 120.2ZM446.921 127.568C447.577 127.568 448.081 127.312 448.433 126.8C448.801 126.288 448.985 125.568 448.985 124.64C448.985 123.712 448.801 122.992 448.433 122.48C448.081 121.968 447.577 121.712 446.921 121.712C446.297 121.712 445.793 121.976 445.409 122.504C445.041 123.016 444.857 123.728 444.857 124.64C444.857 125.552 445.041 126.272 445.409 126.8C445.793 127.312 446.297 127.568 446.921 127.568ZM457.937 137.168C456.737 137.168 455.769 136.744 455.033 135.896C454.297 135.048 453.929 133.936 453.929 132.56C453.929 131.184 454.297 130.072 455.033 129.224C455.769 128.376 456.737 127.952 457.937 127.952C459.137 127.952 460.105 128.376 460.841 129.224C461.593 130.072 461.969 131.184 461.969 132.56C461.969 133.936 461.593 135.048 460.841 135.896C460.105 136.744 459.137 137.168 457.937 137.168ZM457.937 135.488C458.577 135.488 459.081 135.232 459.449 134.72C459.817 134.192 460.001 133.472 460.001 132.56C460.001 131.648 459.817 130.936 459.449 130.424C459.081 129.896 458.577 129.632 457.937 129.632C457.297 129.632 456.793 129.888 456.425 130.4C456.057 130.912 455.873 131.632 455.873 132.56C455.873 133.488 456.057 134.208 456.425 134.72C456.793 135.232 457.297 135.488 457.937 135.488Z" fill="#8c2c3a"/>
<path d="M13.6815 384.36V387H1.2975V384.912L7.9695 378.576C8.7215 377.856 9.2255 377.232 9.4815 376.704C9.7535 376.16 9.8895 375.624 9.8895 375.096C9.8895 374.312 9.6255 373.712 9.0975 373.296C8.5695 372.88 7.7935 372.672 6.7695 372.672C5.0575 372.672 3.7455 373.256 2.8335 374.424L0.6495 372.744C1.3055 371.864 2.1855 371.184 3.2895 370.704C4.4095 370.208 5.6575 369.96 7.0335 369.96C8.8575 369.96 10.3135 370.392 11.4015 371.256C12.4895 372.12 13.0335 373.296 13.0335 374.784C13.0335 375.696 12.8415 376.552 12.4575 377.352C12.0735 378.152 11.3375 379.064 10.2495 380.088L5.7615 384.36H13.6815ZM23.5239 376.632C24.6279 376.632 25.6199 376.848 26.4999 377.28C27.3799 377.696 28.0679 378.296 28.5639 379.08C29.0599 379.864 29.3079 380.768 29.3079 381.792C29.3079 382.88 29.0359 383.84 28.4919 384.672C27.9479 385.488 27.2119 386.12 26.2839 386.568C25.3559 387.016 24.3159 387.24 23.1639 387.24C20.8599 387.24 19.0679 386.52 17.7879 385.08C16.5239 383.64 15.8919 381.576 15.8919 378.888C15.8919 377 16.2359 375.392 16.9239 374.064C17.6119 372.72 18.5719 371.704 19.8039 371.016C21.0519 370.312 22.4919 369.96 24.1239 369.96C24.9879 369.96 25.7959 370.056 26.5479 370.248C27.3159 370.424 27.9799 370.688 28.5399 371.04L27.3879 373.392C26.5559 372.848 25.4919 372.576 24.1959 372.576C22.5799 372.576 21.3159 373.072 20.4039 374.064C19.4919 375.056 19.0359 376.488 19.0359 378.36V378.384C19.5319 377.808 20.1639 377.376 20.9319 377.088C21.6999 376.784 22.5639 376.632 23.5239 376.632ZM22.9959 384.792C23.9719 384.792 24.7639 384.536 25.3719 384.024C25.9799 383.496 26.2839 382.8 26.2839 381.936C26.2839 381.056 25.9799 380.36 25.3719 379.848C24.7639 379.336 23.9479 379.08 22.9239 379.08C21.9159 379.08 21.0919 379.352 20.4519 379.896C19.8279 380.44 19.5159 381.128 19.5159 381.96C19.5159 382.776 19.8199 383.456 20.4279 384C21.0519 384.528 21.9079 384.792 22.9959 384.792ZM34.6941 379.248C33.4941 379.248 32.5261 378.824 31.7901 377.976C31.0541 377.128 30.6861 376.016 30.6861 374.64C30.6861 373.264 31.0541 372.152 31.7901 371.304C32.5261 370.456 33.4941 370.032 34.6941 370.032C35.8941 370.032 36.8621 370.456 37.5981 371.304C38.3501 372.136 38.7261 373.248 38.7261 374.64C38.7261 376.032 38.3501 377.152 37.5981 378C36.8621 378.832 35.8941 379.248 34.6941 379.248ZM44.7741 370.2H47.1261L35.6541 387H33.3021L44.7741 370.2ZM34.6941 377.568C35.3501 377.568 35.8541 377.312 36.2061 376.8C36.5741 376.288 36.7581 375.568 36.7581 374.64C36.7581 373.712 36.5741 372.992 36.2061 372.48C35.8541 371.968 35.3501 371.712 34.6941 371.712C34.0701 371.712 33.5661 371.976 33.1821 372.504C32.8141 373.016 32.6301 373.728 32.6301 374.64C32.6301 375.552 32.8141 376.272 33.1821 376.8C33.5661 377.312 34.0701 377.568 34.6941 377.568ZM45.7101 387.168C44.5101 387.168 43.5421 386.744 42.8061 385.896C42.0701 385.048 41.7021 383.936 41.7021 382.56C41.7021 381.184 42.0701 380.072 42.8061 379.224C43.5421 378.376 44.5101 377.952 45.7101 377.952C46.9101 377.952 47.8781 378.376 48.6141 379.224C49.3661 380.072 49.7421 381.184 49.7421 382.56C49.7421 383.936 49.3661 385.048 48.6141 385.896C47.8781 386.744 46.9101 387.168 45.7101 387.168ZM45.7101 385.488C46.3501 385.488 46.8541 385.232 47.2221 384.72C47.5901 384.192 47.7741 383.472 47.7741 382.56C47.7741 381.648 47.5901 380.936 47.2221 380.424C46.8541 379.896 46.3501 379.632 45.7101 379.632C45.0701 379.632 44.5661 379.888 44.1981 380.4C43.8301 380.912 43.6461 381.632 43.6461 382.56C43.6461 383.488 43.8301 384.208 44.1981 384.72C44.5661 385.232 45.0701 385.488 45.7101 385.488Z" fill="#8c2c3a"/>
<path d="M7.20041 83.2V100H4.08041V85.816H0.528407V83.2H7.20041ZM18.645 89.632C19.749 89.632 20.741 89.848 21.621 90.28C22.501 90.696 23.189 91.296 23.685 92.08C24.181 92.864 24.429 93.768 24.429 94.792C24.429 95.88 24.157 96.84 23.613 97.672C23.069 98.488 22.333 99.12 21.405 99.568C20.477 100.016 19.437 100.24 18.285 100.24C15.981 100.24 14.189 99.52 12.909 98.08C11.645 96.64 11.013 94.576 11.013 91.888C11.013 90 11.357 88.392 12.045 87.064C12.733 85.72 13.693 84.704 14.925 84.016C16.173 83.312 17.613 82.96 19.245 82.96C20.109 82.96 20.917 83.056 21.669 83.248C22.437 83.424 23.101 83.688 23.661 84.04L22.509 86.392C21.677 85.848 20.613 85.576 19.317 85.576C17.701 85.576 16.437 86.072 15.525 87.064C14.613 88.056 14.157 89.488 14.157 91.36V91.384C14.653 90.808 15.285 90.376 16.053 90.088C16.821 89.784 17.685 89.632 18.645 89.632ZM18.117 97.792C19.093 97.792 19.885 97.536 20.493 97.024C21.101 96.496 21.405 95.8 21.405 94.936C21.405 94.056 21.101 93.36 20.493 92.848C19.885 92.336 19.069 92.08 18.045 92.08C17.037 92.08 16.213 92.352 15.573 92.896C14.949 93.44 14.637 94.128 14.637 94.96C14.637 95.776 14.941 96.456 15.549 97C16.173 97.528 17.029 97.792 18.117 97.792ZM29.8152 92.248C28.6152 92.248 27.6472 91.824 26.9112 90.976C26.1752 90.128 25.8072 89.016 25.8072 87.64C25.8072 86.264 26.1752 85.152 26.9112 84.304C27.6472 83.456 28.6152 83.032 29.8152 83.032C31.0152 83.032 31.9832 83.456 32.7192 84.304C33.4712 85.136 33.8472 86.248 33.8472 87.64C33.8472 89.032 33.4712 90.152 32.7192 91C31.9832 91.832 31.0152 92.248 29.8152 92.248ZM39.8952 83.2H42.2472L30.7752 100H28.4232L39.8952 83.2ZM29.8152 90.568C30.4712 90.568 30.9752 90.312 31.3272 89.8C31.6952 89.288 31.8792 88.568 31.8792 87.64C31.8792 86.712 31.6952 85.992 31.3272 85.48C30.9752 84.968 30.4712 84.712 29.8152 84.712C29.1912 84.712 28.6872 84.976 28.3032 85.504C27.9352 86.016 27.7512 86.728 27.7512 87.64C27.7512 88.552 27.9352 89.272 28.3032 89.8C28.6872 90.312 29.1912 90.568 29.8152 90.568ZM40.8312 100.168C39.6312 100.168 38.6632 99.744 37.9272 98.896C37.1912 98.048 36.8232 96.936 36.8232 95.56C36.8232 94.184 37.1912 93.072 37.9272 92.224C38.6632 91.376 39.6312 90.952 40.8312 90.952C42.0312 90.952 42.9992 91.376 43.7352 92.224C44.4872 93.072 44.8632 94.184 44.8632 95.56C44.8632 96.936 44.4872 98.048 43.7352 98.896C42.9992 99.744 42.0312 100.168 40.8312 100.168ZM40.8312 98.488C41.4712 98.488 41.9752 98.232 42.3432 97.72C42.7112 97.192 42.8952 96.472 42.8952 95.56C42.8952 94.648 42.7112 93.936 42.3432 93.424C41.9752 92.896 41.4712 92.632 40.8312 92.632C40.1912 92.632 39.6872 92.888 39.3192 93.4C38.9512 93.912 38.7672 94.632 38.7672 95.56C38.7672 96.488 38.9512 97.208 39.3192 97.72C39.6872 98.232 40.1912 98.488 40.8312 98.488Z" fill="#8c2c3a"/>
<path d="M107.177 14.168C108.057 14.568 108.729 15.112 109.193 15.8C109.673 16.472 109.913 17.264 109.913 18.176C109.913 19.2 109.625 20.096 109.049 20.864C108.489 21.632 107.689 22.224 106.649 22.64C105.609 23.04 104.401 23.24 103.025 23.24C101.649 23.24 100.441 23.04 99.4008 22.64C98.3768 22.224 97.5848 21.632 97.0248 20.864C96.4648 20.096 96.1848 19.2 96.1848 18.176C96.1848 17.264 96.4168 16.472 96.8808 15.8C97.3448 15.112 98.0088 14.568 98.8728 14.168C98.2008 13.8 97.6808 13.32 97.3128 12.728C96.9608 12.12 96.7848 11.424 96.7848 10.64C96.7848 9.696 97.0408 8.872 97.5528 8.168C98.0808 7.464 98.8168 6.92 99.7608 6.536C100.705 6.152 101.793 5.96 103.025 5.96C104.273 5.96 105.369 6.152 106.313 6.536C107.257 6.92 107.993 7.464 108.521 8.168C109.049 8.872 109.313 9.696 109.313 10.64C109.313 11.424 109.129 12.112 108.761 12.704C108.393 13.296 107.865 13.784 107.177 14.168ZM103.025 8.408C102.049 8.408 101.273 8.616 100.697 9.032C100.137 9.448 99.8568 10.032 99.8568 10.784C99.8568 11.504 100.137 12.08 100.697 12.512C101.273 12.928 102.049 13.136 103.025 13.136C104.017 13.136 104.801 12.928 105.377 12.512C105.953 12.08 106.241 11.504 106.241 10.784C106.241 10.032 105.945 9.448 105.353 9.032C104.777 8.616 104.001 8.408 103.025 8.408ZM103.025 20.792C104.177 20.792 105.089 20.552 105.761 20.072C106.433 19.592 106.769 18.928 106.769 18.08C106.769 17.248 106.433 16.592 105.761 16.112C105.089 15.632 104.177 15.392 103.025 15.392C101.873 15.392 100.969 15.632 100.313 16.112C99.6568 16.592 99.3288 17.248 99.3288 18.08C99.3288 18.928 99.6568 19.592 100.313 20.072C100.969 20.552 101.873 20.792 103.025 20.792ZM115.927 15.248C114.727 15.248 113.759 14.824 113.023 13.976C112.287 13.128 111.919 12.016 111.919 10.64C111.919 9.264 112.287 8.152 113.023 7.304C113.759 6.456 114.727 6.032 115.927 6.032C117.127 6.032 118.095 6.456 118.831 7.304C119.583 8.136 119.959 9.248 119.959 10.64C119.959 12.032 119.583 13.152 118.831 14C118.095 14.832 117.127 15.248 115.927 15.248ZM126.007 6.2H128.359L116.887 23H114.535L126.007 6.2ZM115.927 13.568C116.583 13.568 117.087 13.312 117.439 12.8C117.807 12.288 117.991 11.568 117.991 10.64C117.991 9.712 117.807 8.992 117.439 8.48C117.087 7.968 116.583 7.712 115.927 7.712C115.303 7.712 114.799 7.976 114.415 8.504C114.047 9.016 113.863 9.728 113.863 10.64C113.863 11.552 114.047 12.272 114.415 12.8C114.799 13.312 115.303 13.568 115.927 13.568ZM126.943 23.168C125.743 23.168 124.775 22.744 124.039 21.896C123.303 21.048 122.935 19.936 122.935 18.56C122.935 17.184 123.303 16.072 124.039 15.224C124.775 14.376 125.743 13.952 126.943 13.952C128.143 13.952 129.111 14.376 129.847 15.224C130.599 16.072 130.975 17.184 130.975 18.56C130.975 19.936 130.599 21.048 129.847 21.896C129.111 22.744 128.143 23.168 126.943 23.168ZM126.943 21.488C127.583 21.488 128.087 21.232 128.455 20.72C128.823 20.192 129.007 19.472 129.007 18.56C129.007 17.648 128.823 16.936 128.455 16.424C128.087 15.896 127.583 15.632 126.943 15.632C126.303 15.632 125.799 15.888 125.431 16.4C125.063 16.912 124.879 17.632 124.879 18.56C124.879 19.488 125.063 20.208 125.431 20.72C125.799 21.232 126.303 21.488 126.943 21.488Z" fill="#8c2c3a"/>
<path d="M281.187 24.184H278.211V28H275.187V24.184H265.971V22.024L274.251 11.2H277.587L269.787 21.544H275.283V18.16H278.211V21.544H281.187V24.184ZM285.997 20.248C284.797 20.248 283.829 19.824 283.093 18.976C282.357 18.128 281.989 17.016 281.989 15.64C281.989 14.264 282.357 13.152 283.093 12.304C283.829 11.456 284.797 11.032 285.997 11.032C287.197 11.032 288.165 11.456 288.901 12.304C289.653 13.136 290.029 14.248 290.029 15.64C290.029 17.032 289.653 18.152 288.901 19C288.165 19.832 287.197 20.248 285.997 20.248ZM296.077 11.2H298.429L286.957 28H284.605L296.077 11.2ZM285.997 18.568C286.653 18.568 287.157 18.312 287.509 17.8C287.877 17.288 288.061 16.568 288.061 15.64C288.061 14.712 287.877 13.992 287.509 13.48C287.157 12.968 286.653 12.712 285.997 12.712C285.373 12.712 284.869 12.976 284.485 13.504C284.117 14.016 283.933 14.728 283.933 15.64C283.933 16.552 284.117 17.272 284.485 17.8C284.869 18.312 285.373 18.568 285.997 18.568ZM297.013 28.168C295.813 28.168 294.845 27.744 294.109 26.896C293.373 26.048 293.005 24.936 293.005 23.56C293.005 22.184 293.373 21.072 294.109 20.224C294.845 19.376 295.813 18.952 297.013 18.952C298.213 18.952 299.181 19.376 299.917 20.224C300.669 21.072 301.045 22.184 301.045 23.56C301.045 24.936 300.669 26.048 299.917 26.896C299.181 27.744 298.213 28.168 297.013 28.168ZM297.013 26.488C297.653 26.488 298.157 26.232 298.525 25.72C298.893 25.192 299.077 24.472 299.077 23.56C299.077 22.648 298.893 21.936 298.525 21.424C298.157 20.896 297.653 20.632 297.013 20.632C296.373 20.632 295.869 20.888 295.501 21.4C295.133 21.912 294.949 22.632 294.949 23.56C294.949 24.488 295.133 25.208 295.501 25.72C295.869 26.232 296.373 26.488 297.013 26.488Z" fill="#8c2c3a"/>
<path d="M318 249L392.321 156H457" stroke="#8c2c3a"/>
<path d="M143 211L68.6792 118H4" stroke="#8c2c3a"/>
<path d="M220 98L261.171 47H297" stroke="#8c2c3a"/>
<path d="M176 98L134.829 47H99" stroke="#8c2c3a"/>
<path d="M143 313L68.6792 406L4 406" stroke="#8c2c3a"/>
</svg>
