<svg width="441" height="395" viewBox="0 0 441 395" fill="none" xmlns="http://www.w3.org/2000/svg">
<path d="M403.123 361.2V363.288L396.595 378H393.259L399.571 363.84H392.971V366.696H390.067V361.2H403.123ZM416.007 369.168C416.887 369.568 417.559 370.112 418.023 370.8C418.503 371.472 418.743 372.264 418.743 373.176C418.743 374.2 418.455 375.096 417.879 375.864C417.319 376.632 416.519 377.224 415.479 377.64C414.439 378.04 413.231 378.24 411.855 378.24C410.479 378.24 409.271 378.04 408.231 377.64C407.207 377.224 406.415 376.632 405.855 375.864C405.295 375.096 405.015 374.2 405.015 373.176C405.015 372.264 405.247 371.472 405.711 370.8C406.175 370.112 406.839 369.568 407.703 369.168C407.031 368.8 406.511 368.32 406.143 367.728C405.791 367.12 405.615 366.424 405.615 365.64C405.615 364.696 405.871 363.872 406.383 363.168C406.911 362.464 407.647 361.92 408.591 361.536C409.535 361.152 410.623 360.96 411.855 360.96C413.103 360.96 414.199 361.152 415.143 361.536C416.087 361.92 416.823 362.464 417.351 363.168C417.879 363.872 418.143 364.696 418.143 365.64C418.143 366.424 417.959 367.112 417.591 367.704C417.223 368.296 416.695 368.784 416.007 369.168ZM411.855 363.408C410.879 363.408 410.103 363.616 409.527 364.032C408.967 364.448 408.687 365.032 408.687 365.784C408.687 366.504 408.967 367.08 409.527 367.512C410.103 367.928 410.879 368.136 411.855 368.136C412.847 368.136 413.631 367.928 414.207 367.512C414.783 367.08 415.071 366.504 415.071 365.784C415.071 365.032 414.775 364.448 414.183 364.032C413.607 363.616 412.831 363.408 411.855 363.408ZM411.855 375.792C413.007 375.792 413.919 375.552 414.591 375.072C415.263 374.592 415.599 373.928 415.599 373.08C415.599 372.248 415.263 371.592 414.591 371.112C413.919 370.632 413.007 370.392 411.855 370.392C410.703 370.392 409.799 370.632 409.143 371.112C408.487 371.592 408.159 372.248 408.159 373.08C408.159 373.928 408.487 374.592 409.143 375.072C409.799 375.552 410.703 375.792 411.855 375.792ZM424.757 370.248C423.557 370.248 422.589 369.824 421.853 368.976C421.117 368.128 420.749 367.016 420.749 365.64C420.749 364.264 421.117 363.152 421.853 362.304C422.589 361.456 423.557 361.032 424.757 361.032C425.957 361.032 426.925 361.456 427.661 362.304C428.413 363.136 428.789 364.248 428.789 365.64C428.789 367.032 428.413 368.152 427.661 369C426.925 369.832 425.957 370.248 424.757 370.248ZM434.837 361.2H437.189L425.717 378H423.365L434.837 361.2ZM424.757 368.568C425.413 368.568 425.917 368.312 426.269 367.8C426.637 367.288 426.821 366.568 426.821 365.64C426.821 364.712 426.637 363.992 426.269 363.48C425.917 362.968 425.413 362.712 424.757 362.712C424.133 362.712 423.629 362.976 423.245 363.504C422.877 364.016 422.693 364.728 422.693 365.64C422.693 366.552 422.877 367.272 423.245 367.8C423.629 368.312 424.133 368.568 424.757 368.568ZM435.773 378.168C434.573 378.168 433.605 377.744 432.869 376.896C432.133 376.048 431.765 374.936 431.765 373.56C431.765 372.184 432.133 371.072 432.869 370.224C433.605 369.376 434.573 368.952 435.773 368.952C436.973 368.952 437.941 369.376 438.677 370.224C439.429 371.072 439.805 372.184 439.805 373.56C439.805 374.936 439.429 376.048 438.677 376.896C437.941 377.744 436.973 378.168 435.773 378.168ZM435.773 376.488C436.413 376.488 436.917 376.232 437.285 375.72C437.653 375.192 437.837 374.472 437.837 373.56C437.837 372.648 437.653 371.936 437.285 371.424C436.917 370.896 436.413 370.632 435.773 370.632C435.133 370.632 434.629 370.888 434.261 371.4C433.893 371.912 433.709 372.632 433.709 373.56C433.709 374.488 433.893 375.208 434.261 375.72C434.629 376.232 435.133 376.488 435.773 376.488Z" fill="#8C2C3A"/>
<path d="M13.3338 20.36V23H0.949844V20.912L7.62184 14.576C8.37384 13.856 8.87784 13.232 9.13384 12.704C9.40584 12.16 9.54184 11.624 9.54184 11.096C9.54184 10.312 9.27784 9.712 8.74984 9.296C8.22184 8.88 7.44584 8.672 6.42184 8.672C4.70984 8.672 3.39784 9.256 2.48584 10.424L0.301844 8.744C0.957844 7.864 1.83784 7.184 2.94184 6.704C4.06184 6.208 5.30984 5.96 6.68584 5.96C8.50984 5.96 9.96584 6.392 11.0538 7.256C12.1418 8.12 12.6858 9.296 12.6858 10.784C12.6858 11.696 12.4938 12.552 12.1098 13.352C11.7258 14.152 10.9898 15.064 9.90184 16.088L5.41384 20.36H13.3338ZM27.7826 20.36V23H15.3986V20.912L22.0706 14.576C22.8226 13.856 23.3266 13.232 23.5826 12.704C23.8546 12.16 23.9906 11.624 23.9906 11.096C23.9906 10.312 23.7266 9.712 23.1986 9.296C22.6706 8.88 21.8946 8.672 20.8706 8.672C19.1586 8.672 17.8466 9.256 16.9346 10.424L14.7506 8.744C15.4066 7.864 16.2866 7.184 17.3906 6.704C18.5106 6.208 19.7586 5.96 21.1346 5.96C22.9586 5.96 24.4146 6.392 25.5026 7.256C26.5906 8.12 27.1346 9.296 27.1346 10.784C27.1346 11.696 26.9426 12.552 26.5586 13.352C26.1746 14.152 25.4386 15.064 24.3506 16.088L19.8626 20.36H27.7826ZM34.0417 15.248C32.8417 15.248 31.8737 14.824 31.1377 13.976C30.4017 13.128 30.0337 12.016 30.0337 10.64C30.0337 9.264 30.4017 8.152 31.1377 7.304C31.8737 6.456 32.8417 6.032 34.0417 6.032C35.2417 6.032 36.2097 6.456 36.9457 7.304C37.6977 8.136 38.0737 9.248 38.0737 10.64C38.0737 12.032 37.6977 13.152 36.9457 14C36.2097 14.832 35.2417 15.248 34.0417 15.248ZM44.1217 6.2H46.4737L35.0017 23H32.6497L44.1217 6.2ZM34.0417 13.568C34.6977 13.568 35.2017 13.312 35.5537 12.8C35.9217 12.288 36.1057 11.568 36.1057 10.64C36.1057 9.712 35.9217 8.992 35.5537 8.48C35.2017 7.968 34.6977 7.712 34.0417 7.712C33.4177 7.712 32.9137 7.976 32.5297 8.504C32.1617 9.016 31.9777 9.728 31.9777 10.64C31.9777 11.552 32.1617 12.272 32.5297 12.8C32.9137 13.312 33.4177 13.568 34.0417 13.568ZM45.0577 23.168C43.8577 23.168 42.8897 22.744 42.1537 21.896C41.4177 21.048 41.0497 19.936 41.0497 18.56C41.0497 17.184 41.4177 16.072 42.1537 15.224C42.8897 14.376 43.8577 13.952 45.0577 13.952C46.2577 13.952 47.2257 14.376 47.9617 15.224C48.7137 16.072 49.0897 17.184 49.0897 18.56C49.0897 19.936 48.7137 21.048 47.9617 21.896C47.2257 22.744 46.2577 23.168 45.0577 23.168ZM45.0577 21.488C45.6977 21.488 46.2017 21.232 46.5697 20.72C46.9377 20.192 47.1217 19.472 47.1217 18.56C47.1217 17.648 46.9377 16.936 46.5697 16.424C46.2017 15.896 45.6977 15.632 45.0577 15.632C44.4177 15.632 43.9137 15.888 43.5457 16.4C43.1777 16.912 42.9937 17.632 42.9937 18.56C42.9937 19.488 43.1777 20.208 43.5457 20.72C43.9137 21.232 44.4177 21.488 45.0577 21.488Z" fill="#8C2C3A"/>
<path d="M208 40C241.96 40 275.092 50.4784 302.876 70.0053C330.66 89.5322 351.742 117.156 363.245 149.108C374.749 181.06 376.113 215.783 367.152 248.539C358.191 281.295 339.341 310.488 313.175 332.135C287.009 353.781 254.801 366.827 220.946 369.491C187.091 372.156 153.239 364.309 124.008 347.022C94.7778 329.736 71.5933 303.851 57.6185 272.9C43.6436 241.949 39.5592 207.44 45.9226 174.082L208 205V40Z" fill="#8C2C3A"/>
<path d="M45.9226 174.082C53.1173 136.366 73.2403 102.34 102.825 77.8653C132.41 53.3907 169.604 40 208 40V205L45.9226 174.082Z" fill="#F28595"/>
<path d="M302 301L376.321 394H441" stroke="#8C2C3A"/>
<path d="M139 132L64.6792 39H0" stroke="#8C2C3A"/>
</svg>
