<svg width="454" height="453" viewBox="0 0 454 453" fill="none" xmlns="http://www.w3.org/2000/svg">
<path d="M310.75 85.0388C339.307 101.526 362.251 126.216 376.602 155.904C390.954 185.593 396.052 218.909 391.235 251.531C386.418 284.152 371.908 314.573 349.588 338.846C327.268 363.119 298.168 380.124 266.064 387.654L228.5 227.5L310.75 85.0388Z" fill="#8C2C3A"/>
<path d="M266.064 387.654C245.032 392.587 223.235 393.329 201.916 389.838C180.598 386.347 160.176 378.691 141.816 367.307C123.456 355.924 107.518 341.036 94.9123 323.493C82.3063 305.95 73.2792 286.095 68.3463 265.064L228.5 227.5L266.064 387.654Z" fill="#C1384C"/>
<path d="M68.3463 265.064C60.8163 232.96 63.1087 199.334 74.926 168.548C86.7433 137.763 107.54 111.24 134.618 92.421L228.5 227.5L68.3463 265.064Z" fill="#D95165"/>
<path d="M134.618 92.421C163.144 72.5949 197.214 62.3086 231.945 63.0361L228.5 227.5L134.618 92.421Z" fill="#F28595"/>
<path d="M231.945 63.0361C259.647 63.6163 286.754 71.1847 310.75 85.0388L228.5 227.5L231.945 63.0361Z" fill="#FFAEBA"/>
<path d="M397.208 380.136C398.76 380.328 399.944 380.856 400.76 381.72C401.576 382.584 401.984 383.664 401.984 384.96C401.984 385.936 401.736 386.824 401.24 387.624C400.744 388.424 399.992 389.064 398.984 389.544C397.992 390.008 396.776 390.24 395.336 390.24C394.136 390.24 392.976 390.072 391.856 389.736C390.752 389.384 389.808 388.904 389.024 388.296L390.368 385.872C390.976 386.384 391.712 386.792 392.576 387.096C393.456 387.384 394.36 387.528 395.288 387.528C396.392 387.528 397.256 387.304 397.88 386.856C398.52 386.392 398.84 385.768 398.84 384.984C398.84 384.2 398.536 383.592 397.928 383.16C397.336 382.712 396.424 382.488 395.192 382.488H393.656V380.352L397.472 375.816H389.84V373.2H401.288V375.288L397.208 380.136ZM415.401 381.168C416.281 381.568 416.953 382.112 417.417 382.8C417.897 383.472 418.137 384.264 418.137 385.176C418.137 386.2 417.849 387.096 417.273 387.864C416.713 388.632 415.913 389.224 414.873 389.64C413.833 390.04 412.625 390.24 411.249 390.24C409.873 390.24 408.665 390.04 407.625 389.64C406.601 389.224 405.809 388.632 405.249 387.864C404.689 387.096 404.409 386.2 404.409 385.176C404.409 384.264 404.641 383.472 405.105 382.8C405.569 382.112 406.233 381.568 407.097 381.168C406.425 380.8 405.905 380.32 405.537 379.728C405.185 379.12 405.009 378.424 405.009 377.64C405.009 376.696 405.265 375.872 405.777 375.168C406.305 374.464 407.041 373.92 407.985 373.536C408.929 373.152 410.017 372.96 411.249 372.96C412.497 372.96 413.593 373.152 414.537 373.536C415.481 373.92 416.217 374.464 416.745 375.168C417.273 375.872 417.537 376.696 417.537 377.64C417.537 378.424 417.353 379.112 416.985 379.704C416.617 380.296 416.089 380.784 415.401 381.168ZM411.249 375.408C410.273 375.408 409.497 375.616 408.921 376.032C408.361 376.448 408.081 377.032 408.081 377.784C408.081 378.504 408.361 379.08 408.921 379.512C409.497 379.928 410.273 380.136 411.249 380.136C412.241 380.136 413.025 379.928 413.601 379.512C414.177 379.08 414.465 378.504 414.465 377.784C414.465 377.032 414.169 376.448 413.577 376.032C413.001 375.616 412.225 375.408 411.249 375.408ZM411.249 387.792C412.401 387.792 413.313 387.552 413.985 387.072C414.657 386.592 414.993 385.928 414.993 385.08C414.993 384.248 414.657 383.592 413.985 383.112C413.313 382.632 412.401 382.392 411.249 382.392C410.097 382.392 409.193 382.632 408.537 383.112C407.881 383.592 407.553 384.248 407.553 385.08C407.553 385.928 407.881 386.592 408.537 387.072C409.193 387.552 410.097 387.792 411.249 387.792ZM424.151 382.248C422.951 382.248 421.983 381.824 421.247 380.976C420.511 380.128 420.143 379.016 420.143 377.64C420.143 376.264 420.511 375.152 421.247 374.304C421.983 373.456 422.951 373.032 424.151 373.032C425.351 373.032 426.319 373.456 427.055 374.304C427.807 375.136 428.183 376.248 428.183 377.64C428.183 379.032 427.807 380.152 427.055 381C426.319 381.832 425.351 382.248 424.151 382.248ZM434.231 373.2H436.583L425.111 390H422.759L434.231 373.2ZM424.151 380.568C424.807 380.568 425.311 380.312 425.663 379.8C426.031 379.288 426.215 378.568 426.215 377.64C426.215 376.712 426.031 375.992 425.663 375.48C425.311 374.968 424.807 374.712 424.151 374.712C423.527 374.712 423.023 374.976 422.639 375.504C422.271 376.016 422.087 376.728 422.087 377.64C422.087 378.552 422.271 379.272 422.639 379.8C423.023 380.312 423.527 380.568 424.151 380.568ZM435.167 390.168C433.967 390.168 432.999 389.744 432.263 388.896C431.527 388.048 431.159 386.936 431.159 385.56C431.159 384.184 431.527 383.072 432.263 382.224C432.999 381.376 433.967 380.952 435.167 380.952C436.367 380.952 437.335 381.376 438.071 382.224C438.823 383.072 439.199 384.184 439.199 385.56C439.199 386.936 438.823 388.048 438.071 388.896C437.335 389.744 436.367 390.168 435.167 390.168ZM435.167 388.488C435.807 388.488 436.311 388.232 436.679 387.72C437.047 387.192 437.231 386.472 437.231 385.56C437.231 384.648 437.047 383.936 436.679 383.424C436.311 382.896 435.807 382.632 435.167 382.632C434.527 382.632 434.023 382.888 433.655 383.4C433.287 383.912 433.103 384.632 433.103 385.56C433.103 386.488 433.287 387.208 433.655 387.72C434.023 388.232 434.527 388.488 435.167 388.488Z" fill="#8C2C3A"/>
<path d="M51.5448 384.36V387H39.1608V384.912L45.8328 378.576C46.5848 377.856 47.0888 377.232 47.3448 376.704C47.6168 376.16 47.7528 375.624 47.7528 375.096C47.7528 374.312 47.4888 373.712 46.9608 373.296C46.4328 372.88 45.6568 372.672 44.6328 372.672C42.9208 372.672 41.6088 373.256 40.6968 374.424L38.5128 372.744C39.1688 371.864 40.0488 371.184 41.1528 370.704C42.2728 370.208 43.5208 369.96 44.8968 369.96C46.7208 369.96 48.1768 370.392 49.2648 371.256C50.3528 372.12 50.8968 373.296 50.8968 374.784C50.8968 375.696 50.7048 376.552 50.3208 377.352C49.9368 378.152 49.2008 379.064 48.1128 380.088L43.6248 384.36H51.5448ZM59.0815 376.704C61.4495 376.704 63.2015 377.168 64.3375 378.096C65.4735 379.008 66.0415 380.256 66.0415 381.84C66.0415 382.848 65.7935 383.76 65.2975 384.576C64.8015 385.392 64.0575 386.04 63.0655 386.52C62.0735 387 60.8495 387.24 59.3935 387.24C58.1935 387.24 57.0335 387.072 55.9135 386.736C54.7935 386.384 53.8495 385.904 53.0815 385.296L54.4015 382.872C55.0255 383.384 55.7695 383.792 56.6335 384.096C57.5135 384.384 58.4175 384.528 59.3455 384.528C60.4495 384.528 61.3135 384.304 61.9375 383.856C62.5775 383.392 62.8975 382.76 62.8975 381.96C62.8975 381.096 62.5535 380.448 61.8655 380.016C61.1935 379.568 60.0335 379.344 58.3855 379.344H54.3295L55.1935 370.2H65.0575V372.816H57.8335L57.4735 376.704H59.0815ZM71.8308 379.248C70.6308 379.248 69.6628 378.824 68.9268 377.976C68.1908 377.128 67.8228 376.016 67.8228 374.64C67.8228 373.264 68.1908 372.152 68.9268 371.304C69.6628 370.456 70.6308 370.032 71.8308 370.032C73.0308 370.032 73.9988 370.456 74.7348 371.304C75.4868 372.136 75.8628 373.248 75.8628 374.64C75.8628 376.032 75.4868 377.152 74.7348 378C73.9988 378.832 73.0308 379.248 71.8308 379.248ZM81.9108 370.2H84.2628L72.7908 387H70.4388L81.9108 370.2ZM71.8308 377.568C72.4868 377.568 72.9908 377.312 73.3428 376.8C73.7108 376.288 73.8948 375.568 73.8948 374.64C73.8948 373.712 73.7108 372.992 73.3428 372.48C72.9908 371.968 72.4868 371.712 71.8308 371.712C71.2068 371.712 70.7028 371.976 70.3188 372.504C69.9508 373.016 69.7668 373.728 69.7668 374.64C69.7668 375.552 69.9508 376.272 70.3188 376.8C70.7028 377.312 71.2068 377.568 71.8308 377.568ZM82.8468 387.168C81.6468 387.168 80.6788 386.744 79.9428 385.896C79.2068 385.048 78.8388 383.936 78.8388 382.56C78.8388 381.184 79.2068 380.072 79.9428 379.224C80.6788 378.376 81.6468 377.952 82.8468 377.952C84.0468 377.952 85.0148 378.376 85.7508 379.224C86.5028 380.072 86.8788 381.184 86.8788 382.56C86.8788 383.936 86.5028 385.048 85.7508 385.896C85.0148 386.744 84.0468 387.168 82.8468 387.168ZM82.8468 385.488C83.4868 385.488 83.9908 385.232 84.3588 384.72C84.7268 384.192 84.9108 383.472 84.9108 382.56C84.9108 381.648 84.7268 380.936 84.3588 380.424C83.9908 379.896 83.4868 379.632 82.8468 379.632C82.2068 379.632 81.7028 379.888 81.3348 380.4C80.9668 380.912 80.7828 381.632 80.7828 382.56C80.7828 383.488 80.9668 384.208 81.3348 384.72C81.7028 385.232 82.2068 385.488 82.8468 385.488Z" fill="#8C2C3A"/>
<path d="M6.96603 105.2V122H3.84603V107.816H0.294032V105.2H6.96603ZM16.4427 104.96C18.7467 104.96 20.5307 105.68 21.7947 107.12C23.0747 108.56 23.7147 110.624 23.7147 113.312C23.7147 115.2 23.3707 116.816 22.6827 118.16C21.9947 119.488 21.0267 120.504 19.7787 121.208C18.5467 121.896 17.1147 122.24 15.4827 122.24C14.6187 122.24 13.8027 122.152 13.0347 121.976C12.2827 121.784 11.6267 121.512 11.0667 121.16L12.2187 118.808C13.0507 119.352 14.1147 119.624 15.4107 119.624C17.0267 119.624 18.2907 119.128 19.2027 118.136C20.1147 117.144 20.5707 115.712 20.5707 113.84V113.816C20.0747 114.392 19.4427 114.832 18.6747 115.136C17.9067 115.424 17.0427 115.568 16.0827 115.568C14.9787 115.568 13.9867 115.36 13.1067 114.944C12.2267 114.512 11.5387 113.904 11.0427 113.12C10.5467 112.336 10.2987 111.432 10.2987 110.408C10.2987 109.32 10.5707 108.368 11.1147 107.552C11.6587 106.72 12.3947 106.08 13.3227 105.632C14.2507 105.184 15.2907 104.96 16.4427 104.96ZM16.6827 113.12C17.6907 113.12 18.5067 112.848 19.1307 112.304C19.7707 111.76 20.0907 111.072 20.0907 110.24C20.0907 109.424 19.7787 108.752 19.1547 108.224C18.5467 107.68 17.6987 107.408 16.6107 107.408C15.6347 107.408 14.8427 107.672 14.2347 108.2C13.6267 108.712 13.3227 109.4 13.3227 110.264C13.3227 111.144 13.6267 111.84 14.2347 112.352C14.8427 112.864 15.6587 113.12 16.6827 113.12ZM30.0495 114.248C28.8495 114.248 27.8815 113.824 27.1455 112.976C26.4095 112.128 26.0415 111.016 26.0415 109.64C26.0415 108.264 26.4095 107.152 27.1455 106.304C27.8815 105.456 28.8495 105.032 30.0495 105.032C31.2495 105.032 32.2175 105.456 32.9535 106.304C33.7055 107.136 34.0815 108.248 34.0815 109.64C34.0815 111.032 33.7055 112.152 32.9535 113C32.2175 113.832 31.2495 114.248 30.0495 114.248ZM40.1295 105.2H42.4815L31.0095 122H28.6575L40.1295 105.2ZM30.0495 112.568C30.7055 112.568 31.2095 112.312 31.5615 111.8C31.9295 111.288 32.1135 110.568 32.1135 109.64C32.1135 108.712 31.9295 107.992 31.5615 107.48C31.2095 106.968 30.7055 106.712 30.0495 106.712C29.4255 106.712 28.9215 106.976 28.5375 107.504C28.1695 108.016 27.9855 108.728 27.9855 109.64C27.9855 110.552 28.1695 111.272 28.5375 111.8C28.9215 112.312 29.4255 112.568 30.0495 112.568ZM41.0655 122.168C39.8655 122.168 38.8975 121.744 38.1615 120.896C37.4255 120.048 37.0575 118.936 37.0575 117.56C37.0575 116.184 37.4255 115.072 38.1615 114.224C38.8975 113.376 39.8655 112.952 41.0655 112.952C42.2655 112.952 43.2335 113.376 43.9695 114.224C44.7215 115.072 45.0975 116.184 45.0975 117.56C45.0975 118.936 44.7215 120.048 43.9695 120.896C43.2335 121.744 42.2655 122.168 41.0655 122.168ZM41.0655 120.488C41.7055 120.488 42.2095 120.232 42.5775 119.72C42.9455 119.192 43.1295 118.472 43.1295 117.56C43.1295 116.648 42.9455 115.936 42.5775 115.424C42.2095 114.896 41.7055 114.632 41.0655 114.632C40.4255 114.632 39.9215 114.888 39.5535 115.4C39.1855 115.912 39.0015 116.632 39.0015 117.56C39.0015 118.488 39.1855 119.208 39.5535 119.72C39.9215 120.232 40.4255 120.488 41.0655 120.488Z" fill="#8C2C3A"/>
<path d="M114.915 6.2V23H111.795V8.816H108.243V6.2H114.915ZM125.736 23.24C124.392 23.24 123.192 22.904 122.136 22.232C121.08 21.544 120.248 20.552 119.64 19.256C119.032 17.944 118.728 16.392 118.728 14.6C118.728 12.808 119.032 11.264 119.64 9.968C120.248 8.656 121.08 7.664 122.136 6.992C123.192 6.304 124.392 5.96 125.736 5.96C127.08 5.96 128.28 6.304 129.336 6.992C130.408 7.664 131.248 8.656 131.856 9.968C132.464 11.264 132.768 12.808 132.768 14.6C132.768 16.392 132.464 17.944 131.856 19.256C131.248 20.552 130.408 21.544 129.336 22.232C128.28 22.904 127.08 23.24 125.736 23.24ZM125.736 20.528C126.936 20.528 127.88 20.032 128.568 19.04C129.272 18.048 129.624 16.568 129.624 14.6C129.624 12.632 129.272 11.152 128.568 10.16C127.88 9.168 126.936 8.672 125.736 8.672C124.552 8.672 123.608 9.168 122.904 10.16C122.216 11.152 121.872 12.632 121.872 14.6C121.872 16.568 122.216 18.048 122.904 19.04C123.608 20.032 124.552 20.528 125.736 20.528ZM139.1 15.248C137.9 15.248 136.932 14.824 136.196 13.976C135.46 13.128 135.092 12.016 135.092 10.64C135.092 9.264 135.46 8.152 136.196 7.304C136.932 6.456 137.9 6.032 139.1 6.032C140.3 6.032 141.268 6.456 142.004 7.304C142.756 8.136 143.132 9.248 143.132 10.64C143.132 12.032 142.756 13.152 142.004 14C141.268 14.832 140.3 15.248 139.1 15.248ZM149.18 6.2H151.532L140.06 23H137.708L149.18 6.2ZM139.1 13.568C139.756 13.568 140.26 13.312 140.612 12.8C140.98 12.288 141.164 11.568 141.164 10.64C141.164 9.712 140.98 8.992 140.612 8.48C140.26 7.968 139.756 7.712 139.1 7.712C138.476 7.712 137.972 7.976 137.588 8.504C137.22 9.016 137.036 9.728 137.036 10.64C137.036 11.552 137.22 12.272 137.588 12.8C137.972 13.312 138.476 13.568 139.1 13.568ZM150.116 23.168C148.916 23.168 147.948 22.744 147.212 21.896C146.476 21.048 146.108 19.936 146.108 18.56C146.108 17.184 146.476 16.072 147.212 15.224C147.948 14.376 148.916 13.952 150.116 13.952C151.316 13.952 152.284 14.376 153.02 15.224C153.772 16.072 154.148 17.184 154.148 18.56C154.148 19.936 153.772 21.048 153.02 21.896C152.284 22.744 151.316 23.168 150.116 23.168ZM150.116 21.488C150.756 21.488 151.26 21.232 151.628 20.72C151.996 20.192 152.18 19.472 152.18 18.56C152.18 17.648 151.996 16.936 151.628 16.424C151.26 15.896 150.756 15.632 150.116 15.632C149.476 15.632 148.972 15.888 148.604 16.4C148.236 16.912 148.052 17.632 148.052 18.56C148.052 19.488 148.236 20.208 148.604 20.72C148.972 21.232 149.476 21.488 150.116 21.488Z" fill="#8C2C3A"/>
<path d="M319.177 14.168C320.057 14.568 320.729 15.112 321.193 15.8C321.673 16.472 321.913 17.264 321.913 18.176C321.913 19.2 321.625 20.096 321.049 20.864C320.489 21.632 319.689 22.224 318.649 22.64C317.609 23.04 316.401 23.24 315.025 23.24C313.649 23.24 312.441 23.04 311.401 22.64C310.377 22.224 309.585 21.632 309.025 20.864C308.465 20.096 308.185 19.2 308.185 18.176C308.185 17.264 308.417 16.472 308.881 15.8C309.345 15.112 310.009 14.568 310.873 14.168C310.201 13.8 309.681 13.32 309.313 12.728C308.961 12.12 308.785 11.424 308.785 10.64C308.785 9.696 309.041 8.872 309.553 8.168C310.081 7.464 310.817 6.92 311.761 6.536C312.705 6.152 313.793 5.96 315.025 5.96C316.273 5.96 317.369 6.152 318.313 6.536C319.257 6.92 319.993 7.464 320.521 8.168C321.049 8.872 321.313 9.696 321.313 10.64C321.313 11.424 321.129 12.112 320.761 12.704C320.393 13.296 319.865 13.784 319.177 14.168ZM315.025 8.408C314.049 8.408 313.273 8.616 312.697 9.032C312.137 9.448 311.857 10.032 311.857 10.784C311.857 11.504 312.137 12.08 312.697 12.512C313.273 12.928 314.049 13.136 315.025 13.136C316.017 13.136 316.801 12.928 317.377 12.512C317.953 12.08 318.241 11.504 318.241 10.784C318.241 10.032 317.945 9.448 317.353 9.032C316.777 8.616 316.001 8.408 315.025 8.408ZM315.025 20.792C316.177 20.792 317.089 20.552 317.761 20.072C318.433 19.592 318.769 18.928 318.769 18.08C318.769 17.248 318.433 16.592 317.761 16.112C317.089 15.632 316.177 15.392 315.025 15.392C313.873 15.392 312.969 15.632 312.313 16.112C311.657 16.592 311.329 17.248 311.329 18.08C311.329 18.928 311.657 19.592 312.313 20.072C312.969 20.552 313.873 20.792 315.025 20.792ZM327.927 15.248C326.727 15.248 325.759 14.824 325.023 13.976C324.287 13.128 323.919 12.016 323.919 10.64C323.919 9.264 324.287 8.152 325.023 7.304C325.759 6.456 326.727 6.032 327.927 6.032C329.127 6.032 330.095 6.456 330.831 7.304C331.583 8.136 331.959 9.248 331.959 10.64C331.959 12.032 331.583 13.152 330.831 14C330.095 14.832 329.127 15.248 327.927 15.248ZM338.007 6.2H340.359L328.887 23H326.535L338.007 6.2ZM327.927 13.568C328.583 13.568 329.087 13.312 329.439 12.8C329.807 12.288 329.991 11.568 329.991 10.64C329.991 9.712 329.807 8.992 329.439 8.48C329.087 7.968 328.583 7.712 327.927 7.712C327.303 7.712 326.799 7.976 326.415 8.504C326.047 9.016 325.863 9.728 325.863 10.64C325.863 11.552 326.047 12.272 326.415 12.8C326.799 13.312 327.303 13.568 327.927 13.568ZM338.943 23.168C337.743 23.168 336.775 22.744 336.039 21.896C335.303 21.048 334.935 19.936 334.935 18.56C334.935 17.184 335.303 16.072 336.039 15.224C336.775 14.376 337.743 13.952 338.943 13.952C340.143 13.952 341.111 14.376 341.847 15.224C342.599 16.072 342.975 17.184 342.975 18.56C342.975 19.936 342.599 21.048 341.847 21.896C341.111 22.744 340.143 23.168 338.943 23.168ZM338.943 21.488C339.583 21.488 340.087 21.232 340.455 20.72C340.823 20.192 341.007 19.472 341.007 18.56C341.007 17.648 340.823 16.936 340.455 16.424C340.087 15.896 339.583 15.632 338.943 15.632C338.303 15.632 337.799 15.888 337.431 16.4C337.063 16.912 336.879 17.632 336.879 18.56C336.879 19.488 337.063 20.208 337.431 20.72C337.799 21.232 338.303 21.488 338.943 21.488Z" fill="#8C2C3A"/>
<path d="M112 213L52.1156 138H2.6226e-06" stroke="#8C2C3A"/>
<path d="M267 90L308.171 39H344" stroke="#8C2C3A"/>
<path d="M190 90L148.829 39H113" stroke="#8C2C3A"/>
<path d="M181 313L106.679 406L42 406" stroke="#8C2C3A"/>
<path d="M302 313L376.321 406L441 406" stroke="#8C2C3A"/>
</svg>
