<svg width="454" height="454" viewBox="0 0 454 454" fill="none" xmlns="http://www.w3.org/2000/svg">
<path d="M391.978 346.756C394.282 346.756 396.066 347.476 397.33 348.916C398.61 350.356 399.25 352.42 399.25 355.108C399.25 356.996 398.906 358.612 398.218 359.956C397.53 361.284 396.562 362.3 395.314 363.004C394.082 363.692 392.65 364.036 391.018 364.036C390.154 364.036 389.338 363.948 388.57 363.772C387.818 363.58 387.162 363.308 386.602 362.956L387.754 360.604C388.586 361.148 389.65 361.42 390.946 361.42C392.562 361.42 393.826 360.924 394.738 359.932C395.65 358.94 396.106 357.508 396.106 355.636V355.612C395.61 356.188 394.978 356.628 394.21 356.932C393.442 357.22 392.578 357.364 391.618 357.364C390.514 357.364 389.522 357.156 388.642 356.74C387.762 356.308 387.074 355.7 386.578 354.916C386.082 354.132 385.834 353.228 385.834 352.204C385.834 351.116 386.106 350.164 386.65 349.348C387.194 348.516 387.93 347.876 388.858 347.428C389.786 346.98 390.826 346.756 391.978 346.756ZM392.218 354.916C393.226 354.916 394.042 354.644 394.666 354.1C395.306 353.556 395.626 352.868 395.626 352.036C395.626 351.22 395.314 350.548 394.69 350.02C394.082 349.476 393.234 349.204 392.146 349.204C391.17 349.204 390.378 349.468 389.77 349.996C389.162 350.508 388.858 351.196 388.858 352.06C388.858 352.94 389.162 353.636 389.77 354.148C390.378 354.66 391.194 354.916 392.218 354.916ZM412.736 354.964C413.616 355.364 414.288 355.908 414.752 356.596C415.232 357.268 415.472 358.06 415.472 358.972C415.472 359.996 415.184 360.892 414.608 361.66C414.048 362.428 413.248 363.02 412.208 363.436C411.168 363.836 409.96 364.036 408.584 364.036C407.208 364.036 406 363.836 404.96 363.436C403.936 363.02 403.144 362.428 402.584 361.66C402.024 360.892 401.744 359.996 401.744 358.972C401.744 358.06 401.976 357.268 402.44 356.596C402.904 355.908 403.568 355.364 404.432 354.964C403.76 354.596 403.24 354.116 402.872 353.524C402.52 352.916 402.344 352.22 402.344 351.436C402.344 350.492 402.6 349.668 403.112 348.964C403.64 348.26 404.376 347.716 405.32 347.332C406.264 346.948 407.352 346.756 408.584 346.756C409.832 346.756 410.928 346.948 411.872 347.332C412.816 347.716 413.552 348.26 414.08 348.964C414.608 349.668 414.872 350.492 414.872 351.436C414.872 352.22 414.688 352.908 414.32 353.5C413.952 354.092 413.424 354.58 412.736 354.964ZM408.584 349.204C407.608 349.204 406.832 349.412 406.256 349.828C405.696 350.244 405.416 350.828 405.416 351.58C405.416 352.3 405.696 352.876 406.256 353.308C406.832 353.724 407.608 353.932 408.584 353.932C409.576 353.932 410.36 353.724 410.936 353.308C411.512 352.876 411.8 352.3 411.8 351.58C411.8 350.828 411.504 350.244 410.912 349.828C410.336 349.412 409.56 349.204 408.584 349.204ZM408.584 361.588C409.736 361.588 410.648 361.348 411.32 360.868C411.992 360.388 412.328 359.724 412.328 358.876C412.328 358.044 411.992 357.388 411.32 356.908C410.648 356.428 409.736 356.188 408.584 356.188C407.432 356.188 406.528 356.428 405.872 356.908C405.216 357.388 404.888 358.044 404.888 358.876C404.888 359.724 405.216 360.388 405.872 360.868C406.528 361.348 407.432 361.588 408.584 361.588ZM421.486 356.044C420.286 356.044 419.318 355.62 418.582 354.772C417.846 353.924 417.478 352.812 417.478 351.436C417.478 350.06 417.846 348.948 418.582 348.1C419.318 347.252 420.286 346.828 421.486 346.828C422.686 346.828 423.654 347.252 424.39 348.1C425.142 348.932 425.518 350.044 425.518 351.436C425.518 352.828 425.142 353.948 424.39 354.796C423.654 355.628 422.686 356.044 421.486 356.044ZM431.566 346.996H433.918L422.446 363.796H420.094L431.566 346.996ZM421.486 354.364C422.142 354.364 422.646 354.108 422.998 353.596C423.366 353.084 423.55 352.364 423.55 351.436C423.55 350.508 423.366 349.788 422.998 349.276C422.646 348.764 422.142 348.508 421.486 348.508C420.862 348.508 420.358 348.772 419.974 349.3C419.606 349.812 419.422 350.524 419.422 351.436C419.422 352.348 419.606 353.068 419.974 353.596C420.358 354.108 420.862 354.364 421.486 354.364ZM432.502 363.964C431.302 363.964 430.334 363.54 429.598 362.692C428.862 361.844 428.494 360.732 428.494 359.356C428.494 357.98 428.862 356.868 429.598 356.02C430.334 355.172 431.302 354.748 432.502 354.748C433.702 354.748 434.67 355.172 435.406 356.02C436.158 356.868 436.534 357.98 436.534 359.356C436.534 360.732 436.158 361.844 435.406 362.692C434.67 363.54 433.702 363.964 432.502 363.964ZM432.502 362.284C433.142 362.284 433.646 362.028 434.014 361.516C434.382 360.988 434.566 360.268 434.566 359.356C434.566 358.444 434.382 357.732 434.014 357.22C433.646 356.692 433.142 356.428 432.502 356.428C431.862 356.428 431.358 356.684 430.99 357.196C430.622 357.708 430.438 358.428 430.438 359.356C430.438 360.284 430.622 361.004 430.99 361.516C431.358 362.028 431.862 362.284 432.502 362.284Z" fill="#8C2C3A"/>
<path d="M335.796 319.796L384.232 379.796H435.796" stroke="#8C2C3A"/>
<path d="M134.023 92.7738C168.839 68.6733 211.667 59.0672 253.441 65.9889C295.215 72.9107 332.656 95.817 357.839 129.859C383.021 163.901 393.967 206.406 388.361 248.377C382.755 290.348 361.036 328.49 327.802 354.729C294.568 380.968 252.427 393.245 210.301 388.96C168.175 384.675 129.369 364.164 102.099 331.771C74.8291 299.377 61.2351 257.643 64.1949 215.403C67.1546 173.163 86.4357 133.732 117.957 105.458L226.796 226.796L134.023 92.7738Z" fill="#8C2C3A"/>
<path d="M117.957 105.458C123.041 100.898 128.407 96.6612 134.023 92.7738L226.796 226.796L117.957 105.458Z" fill="#C1384C"/>
<path d="M61.3544 36.1564V38.7964H48.9704V36.7084L55.6424 30.3724C56.3944 29.6524 56.8984 29.0284 57.1544 28.5004C57.4264 27.9564 57.5624 27.4204 57.5624 26.8924C57.5624 26.1084 57.2984 25.5084 56.7704 25.0924C56.2424 24.6764 55.4664 24.4684 54.4424 24.4684C52.7304 24.4684 51.4184 25.0524 50.5064 26.2204L48.3224 24.5404C48.9784 23.6604 49.8584 22.9804 50.9624 22.5004C52.0824 22.0044 53.3304 21.7564 54.7064 21.7564C56.5304 21.7564 57.9864 22.1884 59.0744 23.0524C60.1624 23.9164 60.7064 25.0924 60.7064 26.5804C60.7064 27.4924 60.5144 28.3484 60.1304 29.1484C59.7464 29.9484 59.0104 30.8604 57.9224 31.8844L53.4344 36.1564H61.3544ZM67.6135 31.0444C66.4135 31.0444 65.4455 30.6204 64.7095 29.7724C63.9735 28.9244 63.6055 27.8124 63.6055 26.4364C63.6055 25.0604 63.9735 23.9484 64.7095 23.1004C65.4455 22.2524 66.4135 21.8284 67.6135 21.8284C68.8135 21.8284 69.7815 22.2524 70.5175 23.1004C71.2695 23.9324 71.6455 25.0444 71.6455 26.4364C71.6455 27.8284 71.2695 28.9484 70.5175 29.7964C69.7815 30.6284 68.8135 31.0444 67.6135 31.0444ZM77.6935 21.9964H80.0455L68.5735 38.7964H66.2215L77.6935 21.9964ZM67.6135 29.3644C68.2695 29.3644 68.7735 29.1084 69.1255 28.5964C69.4935 28.0844 69.6775 27.3644 69.6775 26.4364C69.6775 25.5084 69.4935 24.7884 69.1255 24.2764C68.7735 23.7644 68.2695 23.5084 67.6135 23.5084C66.9895 23.5084 66.4855 23.7724 66.1015 24.3004C65.7335 24.8124 65.5495 25.5244 65.5495 26.4364C65.5495 27.3484 65.7335 28.0684 66.1015 28.5964C66.4855 29.1084 66.9895 29.3644 67.6135 29.3644ZM78.6295 38.9644C77.4295 38.9644 76.4615 38.5404 75.7255 37.6924C74.9895 36.8444 74.6215 35.7324 74.6215 34.3564C74.6215 32.9804 74.9895 31.8684 75.7255 31.0204C76.4615 30.1724 77.4295 29.7484 78.6295 29.7484C79.8295 29.7484 80.7975 30.1724 81.5335 31.0204C82.2855 31.8684 82.6615 32.9804 82.6615 34.3564C82.6615 35.7324 82.2855 36.8444 81.5335 37.6924C80.7975 38.5404 79.8295 38.9644 78.6295 38.9644ZM78.6295 37.2844C79.2695 37.2844 79.7735 37.0284 80.1415 36.5164C80.5095 35.9884 80.6935 35.2684 80.6935 34.3564C80.6935 33.4444 80.5095 32.7324 80.1415 32.2204C79.7735 31.6924 79.2695 31.4284 78.6295 31.4284C77.9895 31.4284 77.4855 31.6844 77.1175 32.1964C76.7495 32.7084 76.5655 33.4284 76.5655 34.3564C76.5655 35.2844 76.7495 36.0044 77.1175 36.5164C77.4855 37.0284 77.9895 37.2844 78.6295 37.2844Z" fill="#8C2C3A"/>
<path d="M131.796 105.796L90.6256 54.7964H46.7961" stroke="#8C2C3A"/>
</svg>
