<svg width="408" height="420" viewBox="0 0 408 420" fill="none" xmlns="http://www.w3.org/2000/svg">
<path d="M232 59C258.943 59 285.468 65.6582 309.216 78.3824C332.965 91.1066 353.201 109.502 368.125 131.934C383.049 154.366 392.199 180.138 394.76 206.958C397.321 233.779 393.214 260.817 382.805 285.667L232 222.5V59Z" fill="#8C2C3A"/>
<path d="M382.805 285.667C373.074 308.9 358.106 329.57 339.07 346.065C320.034 362.56 297.444 374.434 273.063 380.76C248.682 387.086 223.169 387.693 198.514 382.534C173.86 377.375 150.73 366.59 130.931 351.02L232 222.5L382.805 285.667Z" fill="#C1384C"/>
<path d="M130.931 351.02C113.195 337.072 98.5383 319.605 87.8824 299.716C77.2265 279.828 70.8024 257.949 69.0142 235.457L232 222.5L130.931 351.02Z" fill="#D95165"/>
<path d="M69.0142 235.457C66.2498 200.685 74.679 165.939 93.0699 136.299L232 222.5L69.0142 235.457Z" fill="#F28595"/>
<path d="M93.0699 136.299C107.738 112.658 128.195 93.1521 152.507 79.6256L232 222.5L93.0699 136.299Z" fill="#FFAEBA"/>
<path d="M152.507 79.6256C170.697 69.5047 190.653 62.9506 211.302 60.3154L232 222.5L152.507 79.6256Z" fill="#FCCFD5"/>
<path d="M211.302 60.3154C218.167 59.4393 225.08 59 232 59V222.5L211.302 60.3154Z" fill="#FDF4F5"/>
<path d="M113.835 12.632C114.939 12.632 115.931 12.848 116.811 13.28C117.691 13.696 118.379 14.296 118.875 15.08C119.371 15.864 119.619 16.768 119.619 17.792C119.619 18.88 119.347 19.84 118.803 20.672C118.259 21.488 117.523 22.12 116.595 22.568C115.667 23.016 114.627 23.24 113.475 23.24C111.171 23.24 109.379 22.52 108.099 21.08C106.835 19.64 106.203 17.576 106.203 14.888C106.203 13 106.547 11.392 107.235 10.064C107.923 8.72 108.883 7.704 110.115 7.016C111.363 6.312 112.803 5.96 114.435 5.96C115.299 5.96 116.107 6.056 116.859 6.248C117.627 6.424 118.291 6.688 118.851 7.04L117.699 9.392C116.867 8.848 115.803 8.576 114.507 8.576C112.891 8.576 111.627 9.072 110.715 10.064C109.803 11.056 109.347 12.488 109.347 14.36V14.384C109.843 13.808 110.475 13.376 111.243 13.088C112.011 12.784 112.875 12.632 113.835 12.632ZM113.307 20.792C114.283 20.792 115.075 20.536 115.683 20.024C116.291 19.496 116.595 18.8 116.595 17.936C116.595 17.056 116.291 16.36 115.683 15.848C115.075 15.336 114.259 15.08 113.235 15.08C112.227 15.08 111.403 15.352 110.763 15.896C110.139 16.44 109.827 17.128 109.827 17.96C109.827 18.776 110.131 19.456 110.739 20C111.363 20.528 112.219 20.792 113.307 20.792ZM125.005 15.248C123.805 15.248 122.837 14.824 122.101 13.976C121.365 13.128 120.997 12.016 120.997 10.64C120.997 9.264 121.365 8.152 122.101 7.304C122.837 6.456 123.805 6.032 125.005 6.032C126.205 6.032 127.173 6.456 127.909 7.304C128.661 8.136 129.037 9.248 129.037 10.64C129.037 12.032 128.661 13.152 127.909 14C127.173 14.832 126.205 15.248 125.005 15.248ZM135.085 6.2H137.437L125.965 23H123.613L135.085 6.2ZM125.005 13.568C125.661 13.568 126.165 13.312 126.517 12.8C126.885 12.288 127.069 11.568 127.069 10.64C127.069 9.712 126.885 8.992 126.517 8.48C126.165 7.968 125.661 7.712 125.005 7.712C124.381 7.712 123.877 7.976 123.493 8.504C123.125 9.016 122.941 9.728 122.941 10.64C122.941 11.552 123.125 12.272 123.493 12.8C123.877 13.312 124.381 13.568 125.005 13.568ZM136.021 23.168C134.821 23.168 133.853 22.744 133.117 21.896C132.381 21.048 132.013 19.936 132.013 18.56C132.013 17.184 132.381 16.072 133.117 15.224C133.853 14.376 134.821 13.952 136.021 13.952C137.221 13.952 138.189 14.376 138.925 15.224C139.677 16.072 140.053 17.184 140.053 18.56C140.053 19.936 139.677 21.048 138.925 21.896C138.189 22.744 137.221 23.168 136.021 23.168ZM136.021 21.488C136.661 21.488 137.165 21.232 137.533 20.72C137.901 20.192 138.085 19.472 138.085 18.56C138.085 17.648 137.901 16.936 137.533 16.424C137.165 15.896 136.661 15.632 136.021 15.632C135.381 15.632 134.877 15.888 134.509 16.4C134.141 16.912 133.957 17.632 133.957 18.56C133.957 19.488 134.141 20.208 134.509 20.72C134.877 21.232 135.381 21.488 136.021 21.488Z" fill="#8C2C3A"/>
<path d="M70.1768 65.168C71.0568 65.568 71.7288 66.112 72.1928 66.8C72.6728 67.472 72.9128 68.264 72.9128 69.176C72.9128 70.2 72.6248 71.096 72.0488 71.864C71.4888 72.632 70.6888 73.224 69.6488 73.64C68.6088 74.04 67.4008 74.24 66.0248 74.24C64.6488 74.24 63.4408 74.04 62.4008 73.64C61.3768 73.224 60.5848 72.632 60.0248 71.864C59.4648 71.096 59.1848 70.2 59.1848 69.176C59.1848 68.264 59.4168 67.472 59.8808 66.8C60.3448 66.112 61.0088 65.568 61.8728 65.168C61.2008 64.8 60.6808 64.32 60.3128 63.728C59.9608 63.12 59.7848 62.424 59.7848 61.64C59.7848 60.696 60.0408 59.872 60.5528 59.168C61.0808 58.464 61.8168 57.92 62.7608 57.536C63.7048 57.152 64.7928 56.96 66.0248 56.96C67.2728 56.96 68.3688 57.152 69.3128 57.536C70.2568 57.92 70.9928 58.464 71.5208 59.168C72.0488 59.872 72.3128 60.696 72.3128 61.64C72.3128 62.424 72.1288 63.112 71.7608 63.704C71.3928 64.296 70.8648 64.784 70.1768 65.168ZM66.0248 59.408C65.0488 59.408 64.2728 59.616 63.6968 60.032C63.1368 60.448 62.8568 61.032 62.8568 61.784C62.8568 62.504 63.1368 63.08 63.6968 63.512C64.2728 63.928 65.0488 64.136 66.0248 64.136C67.0168 64.136 67.8008 63.928 68.3768 63.512C68.9528 63.08 69.2408 62.504 69.2408 61.784C69.2408 61.032 68.9448 60.448 68.3528 60.032C67.7768 59.616 67.0008 59.408 66.0248 59.408ZM66.0248 71.792C67.1768 71.792 68.0888 71.552 68.7608 71.072C69.4328 70.592 69.7688 69.928 69.7688 69.08C69.7688 68.248 69.4328 67.592 68.7608 67.112C68.0888 66.632 67.1768 66.392 66.0248 66.392C64.8728 66.392 63.9688 66.632 63.3128 67.112C62.6568 67.592 62.3288 68.248 62.3288 69.08C62.3288 69.928 62.6568 70.592 63.3128 71.072C63.9688 71.552 64.8728 71.792 66.0248 71.792ZM78.9267 66.248C77.7267 66.248 76.7587 65.824 76.0227 64.976C75.2867 64.128 74.9187 63.016 74.9187 61.64C74.9187 60.264 75.2867 59.152 76.0227 58.304C76.7587 57.456 77.7267 57.032 78.9267 57.032C80.1267 57.032 81.0947 57.456 81.8307 58.304C82.5827 59.136 82.9587 60.248 82.9587 61.64C82.9587 63.032 82.5827 64.152 81.8307 65C81.0947 65.832 80.1267 66.248 78.9267 66.248ZM89.0067 57.2H91.3587L79.8867 74H77.5347L89.0067 57.2ZM78.9267 64.568C79.5827 64.568 80.0867 64.312 80.4387 63.8C80.8067 63.288 80.9907 62.568 80.9907 61.64C80.9907 60.712 80.8067 59.992 80.4387 59.48C80.0867 58.968 79.5827 58.712 78.9267 58.712C78.3027 58.712 77.7987 58.976 77.4147 59.504C77.0467 60.016 76.8627 60.728 76.8627 61.64C76.8627 62.552 77.0467 63.272 77.4147 63.8C77.7987 64.312 78.3027 64.568 78.9267 64.568ZM89.9427 74.168C88.7427 74.168 87.7747 73.744 87.0387 72.896C86.3027 72.048 85.9347 70.936 85.9347 69.56C85.9347 68.184 86.3027 67.072 87.0387 66.224C87.7747 65.376 88.7427 64.952 89.9427 64.952C91.1427 64.952 92.1107 65.376 92.8467 66.224C93.5987 67.072 93.9747 68.184 93.9747 69.56C93.9747 70.936 93.5987 72.048 92.8467 72.896C92.1107 73.744 91.1427 74.168 89.9427 74.168ZM89.9427 72.488C90.5827 72.488 91.0867 72.232 91.4547 71.72C91.8227 71.192 92.0067 70.472 92.0067 69.56C92.0067 68.648 91.8227 67.936 91.4547 67.424C91.0867 66.896 90.5827 66.632 89.9427 66.632C89.3027 66.632 88.7987 66.888 88.4307 67.4C88.0627 67.912 87.8787 68.632 87.8787 69.56C87.8787 70.488 88.0627 71.208 88.4307 71.72C88.7987 72.232 89.3027 72.488 89.9427 72.488Z" fill="#8C2C3A"/>
<path d="M9.91525 122.2V139H6.79525V124.816H3.24325V122.2H9.91525ZM20.7359 139.24C19.3919 139.24 18.1919 138.904 17.1359 138.232C16.0799 137.544 15.2479 136.552 14.6399 135.256C14.0319 133.944 13.7279 132.392 13.7279 130.6C13.7279 128.808 14.0319 127.264 14.6399 125.968C15.2479 124.656 16.0799 123.664 17.1359 122.992C18.1919 122.304 19.3919 121.96 20.7359 121.96C22.0799 121.96 23.2799 122.304 24.3359 122.992C25.4079 123.664 26.2479 124.656 26.8559 125.968C27.4639 127.264 27.7679 128.808 27.7679 130.6C27.7679 132.392 27.4639 133.944 26.8559 135.256C26.2479 136.552 25.4079 137.544 24.3359 138.232C23.2799 138.904 22.0799 139.24 20.7359 139.24ZM20.7359 136.528C21.9359 136.528 22.8799 136.032 23.5679 135.04C24.2719 134.048 24.6239 132.568 24.6239 130.6C24.6239 128.632 24.2719 127.152 23.5679 126.16C22.8799 125.168 21.9359 124.672 20.7359 124.672C19.5519 124.672 18.6079 125.168 17.9039 126.16C17.2159 127.152 16.8719 128.632 16.8719 130.6C16.8719 132.568 17.2159 134.048 17.9039 135.04C18.6079 136.032 19.5519 136.528 20.7359 136.528ZM34.1003 131.248C32.9003 131.248 31.9323 130.824 31.1963 129.976C30.4603 129.128 30.0923 128.016 30.0923 126.64C30.0923 125.264 30.4603 124.152 31.1963 123.304C31.9323 122.456 32.9003 122.032 34.1003 122.032C35.3003 122.032 36.2683 122.456 37.0043 123.304C37.7563 124.136 38.1323 125.248 38.1323 126.64C38.1323 128.032 37.7563 129.152 37.0043 130C36.2683 130.832 35.3003 131.248 34.1003 131.248ZM44.1803 122.2H46.5323L35.0603 139H32.7083L44.1803 122.2ZM34.1003 129.568C34.7563 129.568 35.2603 129.312 35.6123 128.8C35.9803 128.288 36.1643 127.568 36.1643 126.64C36.1643 125.712 35.9803 124.992 35.6123 124.48C35.2603 123.968 34.7563 123.712 34.1003 123.712C33.4763 123.712 32.9723 123.976 32.5883 124.504C32.2203 125.016 32.0363 125.728 32.0363 126.64C32.0363 127.552 32.2203 128.272 32.5883 128.8C32.9723 129.312 33.4763 129.568 34.1003 129.568ZM45.1163 139.168C43.9163 139.168 42.9483 138.744 42.2123 137.896C41.4763 137.048 41.1083 135.936 41.1083 134.56C41.1083 133.184 41.4763 132.072 42.2123 131.224C42.9483 130.376 43.9163 129.952 45.1163 129.952C46.3163 129.952 47.2843 130.376 48.0203 131.224C48.7723 132.072 49.1483 133.184 49.1483 134.56C49.1483 135.936 48.7723 137.048 48.0203 137.896C47.2843 138.744 46.3163 139.168 45.1163 139.168ZM45.1163 137.488C45.7563 137.488 46.2603 137.232 46.6283 136.72C46.9963 136.192 47.1803 135.472 47.1803 134.56C47.1803 133.648 46.9963 132.936 46.6283 132.424C46.2603 131.896 45.7563 131.632 45.1163 131.632C44.4763 131.632 43.9723 131.888 43.6043 132.4C43.2363 132.912 43.0523 133.632 43.0523 134.56C43.0523 135.488 43.2363 136.208 43.6043 136.72C43.9723 137.232 44.4763 137.488 45.1163 137.488Z" fill="#8C2C3A"/>
<path d="M30.1223 324.2V341H27.0023V326.816H23.4503V324.2H30.1223ZM41.0869 331.136C42.6389 331.328 43.8229 331.856 44.6389 332.72C45.4549 333.584 45.8629 334.664 45.8629 335.96C45.8629 336.936 45.6149 337.824 45.1189 338.624C44.6229 339.424 43.8709 340.064 42.8629 340.544C41.8709 341.008 40.6549 341.24 39.2149 341.24C38.0149 341.24 36.8549 341.072 35.7349 340.736C34.6309 340.384 33.6869 339.904 32.9029 339.296L34.2469 336.872C34.8549 337.384 35.5909 337.792 36.4549 338.096C37.3349 338.384 38.2389 338.528 39.1669 338.528C40.2709 338.528 41.1349 338.304 41.7589 337.856C42.3989 337.392 42.7189 336.768 42.7189 335.984C42.7189 335.2 42.4149 334.592 41.8069 334.16C41.2149 333.712 40.3029 333.488 39.0709 333.488H37.5349V331.352L41.3509 326.816H33.7189V324.2H45.1669V326.288L41.0869 331.136ZM51.8933 333.248C50.6933 333.248 49.7253 332.824 48.9893 331.976C48.2533 331.128 47.8853 330.016 47.8853 328.64C47.8853 327.264 48.2533 326.152 48.9893 325.304C49.7253 324.456 50.6933 324.032 51.8933 324.032C53.0933 324.032 54.0613 324.456 54.7973 325.304C55.5493 326.136 55.9253 327.248 55.9253 328.64C55.9253 330.032 55.5493 331.152 54.7973 332C54.0613 332.832 53.0933 333.248 51.8933 333.248ZM61.9733 324.2H64.3253L52.8533 341H50.5013L61.9733 324.2ZM51.8933 331.568C52.5493 331.568 53.0533 331.312 53.4053 330.8C53.7733 330.288 53.9573 329.568 53.9573 328.64C53.9573 327.712 53.7733 326.992 53.4053 326.48C53.0533 325.968 52.5493 325.712 51.8933 325.712C51.2693 325.712 50.7653 325.976 50.3813 326.504C50.0133 327.016 49.8293 327.728 49.8293 328.64C49.8293 329.552 50.0133 330.272 50.3813 330.8C50.7653 331.312 51.2693 331.568 51.8933 331.568ZM62.9093 341.168C61.7093 341.168 60.7413 340.744 60.0053 339.896C59.2693 339.048 58.9013 337.936 58.9013 336.56C58.9013 335.184 59.2693 334.072 60.0053 333.224C60.7413 332.376 61.7093 331.952 62.9093 331.952C64.1093 331.952 65.0773 332.376 65.8133 333.224C66.5653 334.072 66.9413 335.184 66.9413 336.56C66.9413 337.936 66.5653 339.048 65.8133 339.896C65.0773 340.744 64.1093 341.168 62.9093 341.168ZM62.9093 339.488C63.5493 339.488 64.0533 339.232 64.4213 338.72C64.7893 338.192 64.9733 337.472 64.9733 336.56C64.9733 335.648 64.7893 334.936 64.4213 334.424C64.0533 333.896 63.5493 333.632 62.9093 333.632C62.2693 333.632 61.7653 333.888 61.3973 334.4C61.0293 334.912 60.8453 335.632 60.8453 336.56C60.8453 337.488 61.0293 338.208 61.3973 338.72C61.7653 339.232 62.2693 339.488 62.9093 339.488Z" fill="#8C2C3A"/>
<path d="M368.412 403.36V406H356.028V403.912L362.7 397.576C363.452 396.856 363.956 396.232 364.212 395.704C364.484 395.16 364.62 394.624 364.62 394.096C364.62 393.312 364.356 392.712 363.828 392.296C363.3 391.88 362.524 391.672 361.5 391.672C359.788 391.672 358.476 392.256 357.564 393.424L355.38 391.744C356.036 390.864 356.916 390.184 358.02 389.704C359.14 389.208 360.388 388.96 361.764 388.96C363.588 388.96 365.044 389.392 366.132 390.256C367.22 391.12 367.764 392.296 367.764 393.784C367.764 394.696 367.572 395.552 367.188 396.352C366.804 397.152 366.068 398.064 364.98 399.088L360.492 403.36H368.412ZM376.357 388.96C378.661 388.96 380.445 389.68 381.709 391.12C382.989 392.56 383.629 394.624 383.629 397.312C383.629 399.2 383.285 400.816 382.597 402.16C381.909 403.488 380.941 404.504 379.693 405.208C378.461 405.896 377.029 406.24 375.397 406.24C374.533 406.24 373.717 406.152 372.949 405.976C372.197 405.784 371.541 405.512 370.981 405.16L372.133 402.808C372.965 403.352 374.029 403.624 375.325 403.624C376.941 403.624 378.205 403.128 379.117 402.136C380.029 401.144 380.485 399.712 380.485 397.84V397.816C379.989 398.392 379.357 398.832 378.589 399.136C377.821 399.424 376.957 399.568 375.997 399.568C374.893 399.568 373.901 399.36 373.021 398.944C372.141 398.512 371.453 397.904 370.957 397.12C370.461 396.336 370.213 395.432 370.213 394.408C370.213 393.32 370.485 392.368 371.029 391.552C371.573 390.72 372.309 390.08 373.237 389.632C374.165 389.184 375.205 388.96 376.357 388.96ZM376.597 397.12C377.605 397.12 378.421 396.848 379.045 396.304C379.685 395.76 380.005 395.072 380.005 394.24C380.005 393.424 379.693 392.752 379.069 392.224C378.461 391.68 377.613 391.408 376.525 391.408C375.549 391.408 374.757 391.672 374.149 392.2C373.541 392.712 373.237 393.4 373.237 394.264C373.237 395.144 373.541 395.84 374.149 396.352C374.757 396.864 375.573 397.12 376.597 397.12ZM389.964 398.248C388.764 398.248 387.796 397.824 387.06 396.976C386.324 396.128 385.956 395.016 385.956 393.64C385.956 392.264 386.324 391.152 387.06 390.304C387.796 389.456 388.764 389.032 389.964 389.032C391.164 389.032 392.132 389.456 392.868 390.304C393.62 391.136 393.996 392.248 393.996 393.64C393.996 395.032 393.62 396.152 392.868 397C392.132 397.832 391.164 398.248 389.964 398.248ZM400.044 389.2H402.396L390.924 406H388.572L400.044 389.2ZM389.964 396.568C390.62 396.568 391.124 396.312 391.476 395.8C391.844 395.288 392.028 394.568 392.028 393.64C392.028 392.712 391.844 391.992 391.476 391.48C391.124 390.968 390.62 390.712 389.964 390.712C389.34 390.712 388.836 390.976 388.452 391.504C388.084 392.016 387.9 392.728 387.9 393.64C387.9 394.552 388.084 395.272 388.452 395.8C388.836 396.312 389.34 396.568 389.964 396.568ZM400.98 406.168C399.78 406.168 398.812 405.744 398.076 404.896C397.34 404.048 396.972 402.936 396.972 401.56C396.972 400.184 397.34 399.072 398.076 398.224C398.812 397.376 399.78 396.952 400.98 396.952C402.18 396.952 403.148 397.376 403.884 398.224C404.636 399.072 405.012 400.184 405.012 401.56C405.012 402.936 404.636 404.048 403.884 404.896C403.148 405.744 402.18 406.168 400.98 406.168ZM400.98 404.488C401.62 404.488 402.124 404.232 402.492 403.72C402.86 403.192 403.044 402.472 403.044 401.56C403.044 400.648 402.86 399.936 402.492 399.424C402.124 398.896 401.62 398.632 400.98 398.632C400.34 398.632 399.836 398.888 399.468 399.4C399.1 399.912 398.916 400.632 398.916 401.56C398.916 402.488 399.1 403.208 399.468 403.72C399.836 404.232 400.34 404.488 400.98 404.488Z" fill="#8C2C3A"/>
<path d="M343.349 13.136C344.901 13.328 346.085 13.856 346.901 14.72C347.717 15.584 348.125 16.664 348.125 17.96C348.125 18.936 347.877 19.824 347.381 20.624C346.885 21.424 346.133 22.064 345.125 22.544C344.133 23.008 342.917 23.24 341.477 23.24C340.277 23.24 339.117 23.072 337.997 22.736C336.893 22.384 335.949 21.904 335.165 21.296L336.509 18.872C337.117 19.384 337.853 19.792 338.717 20.096C339.597 20.384 340.501 20.528 341.429 20.528C342.533 20.528 343.397 20.304 344.021 19.856C344.661 19.392 344.981 18.768 344.981 17.984C344.981 17.2 344.677 16.592 344.069 16.16C343.477 15.712 342.565 15.488 341.333 15.488H339.797V13.352L343.613 8.816H335.981V6.2H347.429V8.288L343.349 13.136ZM356.454 6.2V23H353.334V8.816H349.782V6.2H356.454ZM364.01 15.248C362.81 15.248 361.842 14.824 361.106 13.976C360.37 13.128 360.002 12.016 360.002 10.64C360.002 9.264 360.37 8.152 361.106 7.304C361.842 6.456 362.81 6.032 364.01 6.032C365.21 6.032 366.178 6.456 366.914 7.304C367.666 8.136 368.042 9.248 368.042 10.64C368.042 12.032 367.666 13.152 366.914 14C366.178 14.832 365.21 15.248 364.01 15.248ZM374.09 6.2H376.442L364.97 23H362.618L374.09 6.2ZM364.01 13.568C364.666 13.568 365.17 13.312 365.522 12.8C365.89 12.288 366.074 11.568 366.074 10.64C366.074 9.712 365.89 8.992 365.522 8.48C365.17 7.968 364.666 7.712 364.01 7.712C363.386 7.712 362.882 7.976 362.498 8.504C362.13 9.016 361.946 9.728 361.946 10.64C361.946 11.552 362.13 12.272 362.498 12.8C362.882 13.312 363.386 13.568 364.01 13.568ZM375.026 23.168C373.826 23.168 372.858 22.744 372.122 21.896C371.386 21.048 371.018 19.936 371.018 18.56C371.018 17.184 371.386 16.072 372.122 15.224C372.858 14.376 373.826 13.952 375.026 13.952C376.226 13.952 377.194 14.376 377.93 15.224C378.682 16.072 379.058 17.184 379.058 18.56C379.058 19.936 378.682 21.048 377.93 21.896C377.194 22.744 376.226 23.168 375.026 23.168ZM375.026 21.488C375.666 21.488 376.17 21.232 376.538 20.72C376.906 20.192 377.09 19.472 377.09 18.56C377.09 17.648 376.906 16.936 376.538 16.424C376.17 15.896 375.666 15.632 375.026 15.632C374.386 15.632 373.882 15.888 373.514 16.4C373.146 16.912 372.962 17.632 372.962 18.56C372.962 19.488 373.146 20.208 373.514 20.72C373.882 21.232 374.386 21.488 375.026 21.488Z" fill="#8C2C3A"/>
<path d="M218.558 20.36V23H206.174V20.912L212.846 14.576C213.598 13.856 214.102 13.232 214.358 12.704C214.63 12.16 214.766 11.624 214.766 11.096C214.766 10.312 214.502 9.712 213.974 9.296C213.446 8.88 212.67 8.672 211.646 8.672C209.934 8.672 208.622 9.256 207.71 10.424L205.526 8.744C206.182 7.864 207.062 7.184 208.166 6.704C209.286 6.208 210.534 5.96 211.91 5.96C213.734 5.96 215.19 6.392 216.278 7.256C217.366 8.12 217.91 9.296 217.91 10.784C217.91 11.696 217.718 12.552 217.334 13.352C216.95 14.152 216.214 15.064 215.126 16.088L210.638 20.36H218.558ZM224.817 15.248C223.617 15.248 222.649 14.824 221.913 13.976C221.177 13.128 220.809 12.016 220.809 10.64C220.809 9.264 221.177 8.152 221.913 7.304C222.649 6.456 223.617 6.032 224.817 6.032C226.017 6.032 226.985 6.456 227.721 7.304C228.473 8.136 228.849 9.248 228.849 10.64C228.849 12.032 228.473 13.152 227.721 14C226.985 14.832 226.017 15.248 224.817 15.248ZM234.897 6.2H237.249L225.777 23H223.425L234.897 6.2ZM224.817 13.568C225.473 13.568 225.977 13.312 226.329 12.8C226.697 12.288 226.881 11.568 226.881 10.64C226.881 9.712 226.697 8.992 226.329 8.48C225.977 7.968 225.473 7.712 224.817 7.712C224.193 7.712 223.689 7.976 223.305 8.504C222.937 9.016 222.753 9.728 222.753 10.64C222.753 11.552 222.937 12.272 223.305 12.8C223.689 13.312 224.193 13.568 224.817 13.568ZM235.833 23.168C234.633 23.168 233.665 22.744 232.929 21.896C232.193 21.048 231.825 19.936 231.825 18.56C231.825 17.184 232.193 16.072 232.929 15.224C233.665 14.376 234.633 13.952 235.833 13.952C237.033 13.952 238.001 14.376 238.737 15.224C239.489 16.072 239.865 17.184 239.865 18.56C239.865 19.936 239.489 21.048 238.737 21.896C238.001 22.744 237.033 23.168 235.833 23.168ZM235.833 21.488C236.473 21.488 236.977 21.232 237.345 20.72C237.713 20.192 237.897 19.472 237.897 18.56C237.897 17.648 237.713 16.936 237.345 16.424C236.977 15.896 236.473 15.632 235.833 15.632C235.193 15.632 234.689 15.888 234.321 16.4C233.953 16.912 233.769 17.632 233.769 18.56C233.769 19.488 233.953 20.208 234.321 20.72C234.689 21.232 235.193 21.488 235.833 21.488Z" fill="#8C2C3A"/>
<path d="M189 90L147.829 39H104" stroke="#8C2C3A"/>
<path d="M145 150L96.5641 90H45" stroke="#8C2C3A"/>
<path d="M100 215L51.5641 155H-4.17233e-06" stroke="#8C2C3A"/>
<path d="M137 275L70.6428 357H21" stroke="#8C2C3A"/>
<path d="M295 90L336.171 39H381" stroke="#8C2C3A"/>
<path d="M273 318L354.384 419H407.5" stroke="#8C2C3A"/>
<line x1="223.5" y1="86" x2="223.5" y2="39" stroke="#8C2C3A"/>
</svg>
