<svg width="454" height="454" viewBox="0 0 454 454" fill="none" xmlns="http://www.w3.org/2000/svg">
<path d="M393.582 353.428C394.686 353.428 395.678 353.644 396.558 354.076C397.438 354.492 398.126 355.092 398.622 355.876C399.118 356.66 399.366 357.564 399.366 358.588C399.366 359.676 399.094 360.636 398.55 361.468C398.006 362.284 397.27 362.916 396.342 363.364C395.414 363.812 394.374 364.036 393.222 364.036C390.918 364.036 389.126 363.316 387.846 361.876C386.582 360.436 385.95 358.372 385.95 355.684C385.95 353.796 386.294 352.188 386.982 350.86C387.67 349.516 388.63 348.5 389.862 347.812C391.11 347.108 392.55 346.756 394.182 346.756C395.046 346.756 395.854 346.852 396.606 347.044C397.374 347.22 398.038 347.484 398.598 347.836L397.446 350.188C396.614 349.644 395.55 349.372 394.254 349.372C392.638 349.372 391.374 349.868 390.462 350.86C389.55 351.852 389.094 353.284 389.094 355.156V355.18C389.59 354.604 390.222 354.172 390.99 353.884C391.758 353.58 392.622 353.428 393.582 353.428ZM393.054 361.588C394.03 361.588 394.822 361.332 395.43 360.82C396.038 360.292 396.342 359.596 396.342 358.732C396.342 357.852 396.038 357.156 395.43 356.644C394.822 356.132 394.006 355.876 392.982 355.876C391.974 355.876 391.15 356.148 390.51 356.692C389.886 357.236 389.574 357.924 389.574 358.756C389.574 359.572 389.878 360.252 390.486 360.796C391.11 361.324 391.966 361.588 393.054 361.588ZM408.485 364.036C407.141 364.036 405.941 363.7 404.885 363.028C403.829 362.34 402.997 361.348 402.389 360.052C401.781 358.74 401.477 357.188 401.477 355.396C401.477 353.604 401.781 352.06 402.389 350.764C402.997 349.452 403.829 348.46 404.885 347.788C405.941 347.1 407.141 346.756 408.485 346.756C409.829 346.756 411.029 347.1 412.085 347.788C413.157 348.46 413.997 349.452 414.605 350.764C415.213 352.06 415.517 353.604 415.517 355.396C415.517 357.188 415.213 358.74 414.605 360.052C413.997 361.348 413.157 362.34 412.085 363.028C411.029 363.7 409.829 364.036 408.485 364.036ZM408.485 361.324C409.685 361.324 410.629 360.828 411.317 359.836C412.021 358.844 412.373 357.364 412.373 355.396C412.373 353.428 412.021 351.948 411.317 350.956C410.629 349.964 409.685 349.468 408.485 349.468C407.301 349.468 406.357 349.964 405.653 350.956C404.965 351.948 404.621 353.428 404.621 355.396C404.621 357.364 404.965 358.844 405.653 359.836C406.357 360.828 407.301 361.324 408.485 361.324ZM421.85 356.044C420.65 356.044 419.682 355.62 418.946 354.772C418.21 353.924 417.842 352.812 417.842 351.436C417.842 350.06 418.21 348.948 418.946 348.1C419.682 347.252 420.65 346.828 421.85 346.828C423.05 346.828 424.018 347.252 424.754 348.1C425.506 348.932 425.882 350.044 425.882 351.436C425.882 352.828 425.506 353.948 424.754 354.796C424.018 355.628 423.05 356.044 421.85 356.044ZM431.93 346.996H434.282L422.81 363.796H420.458L431.93 346.996ZM421.85 354.364C422.506 354.364 423.01 354.108 423.362 353.596C423.73 353.084 423.914 352.364 423.914 351.436C423.914 350.508 423.73 349.788 423.362 349.276C423.01 348.764 422.506 348.508 421.85 348.508C421.226 348.508 420.722 348.772 420.338 349.3C419.97 349.812 419.786 350.524 419.786 351.436C419.786 352.348 419.97 353.068 420.338 353.596C420.722 354.108 421.226 354.364 421.85 354.364ZM432.866 363.964C431.666 363.964 430.698 363.54 429.962 362.692C429.226 361.844 428.858 360.732 428.858 359.356C428.858 357.98 429.226 356.868 429.962 356.02C430.698 355.172 431.666 354.748 432.866 354.748C434.066 354.748 435.034 355.172 435.77 356.02C436.522 356.868 436.898 357.98 436.898 359.356C436.898 360.732 436.522 361.844 435.77 362.692C435.034 363.54 434.066 363.964 432.866 363.964ZM432.866 362.284C433.506 362.284 434.01 362.028 434.378 361.516C434.746 360.988 434.93 360.268 434.93 359.356C434.93 358.444 434.746 357.732 434.378 357.22C434.01 356.692 433.506 356.428 432.866 356.428C432.226 356.428 431.722 356.684 431.354 357.196C430.986 357.708 430.802 358.428 430.802 359.356C430.802 360.284 430.986 361.004 431.354 361.516C431.722 362.028 432.226 362.284 432.866 362.284Z" fill="#8C2C3A"/>
<path d="M335.796 319.796L384.232 379.796H435.796" stroke="#8C2C3A"/>
<path d="M134.023 92.7738C168.839 68.6733 211.667 59.0672 253.441 65.9889C295.215 72.9107 332.656 95.817 357.839 129.859C383.021 163.901 393.967 206.406 388.361 248.377C382.755 290.348 361.036 328.49 327.802 354.729C294.568 380.968 252.427 393.245 210.301 388.96C168.175 384.675 129.369 364.164 102.099 331.771C74.8291 299.377 61.2351 257.643 64.1949 215.403C67.1546 173.163 86.4357 133.732 117.957 105.458L226.796 226.796L134.023 92.7738Z" fill="#8C2C3A"/>
<path d="M117.957 105.458C123.041 100.898 128.407 96.6612 134.023 92.7738L226.796 226.796L117.957 105.458Z" fill="#C1384C"/>
<path d="M56.6309 28.4284C57.7349 28.4284 58.7269 28.6444 59.6069 29.0764C60.4869 29.4924 61.1749 30.0924 61.6709 30.8764C62.1669 31.6604 62.4149 32.5644 62.4149 33.5884C62.4149 34.6764 62.1429 35.6364 61.5989 36.4684C61.0549 37.2844 60.3189 37.9164 59.3909 38.3644C58.4629 38.8124 57.4229 39.0364 56.2709 39.0364C53.9669 39.0364 52.1749 38.3164 50.8949 36.8764C49.6309 35.4364 48.9989 33.3724 48.9989 30.6844C48.9989 28.7964 49.3429 27.1884 50.0309 25.8604C50.7189 24.5164 51.6789 23.5004 52.9109 22.8124C54.1589 22.1084 55.5989 21.7564 57.2309 21.7564C58.0949 21.7564 58.9029 21.8524 59.6549 22.0444C60.4229 22.2204 61.0869 22.4844 61.6469 22.8364L60.4949 25.1884C59.6629 24.6444 58.5989 24.3724 57.3029 24.3724C55.6869 24.3724 54.4229 24.8684 53.5109 25.8604C52.5989 26.8524 52.1429 28.2844 52.1429 30.1564V30.1804C52.6389 29.6044 53.2709 29.1724 54.0389 28.8844C54.8069 28.5804 55.6709 28.4284 56.6309 28.4284ZM56.1029 36.5884C57.0789 36.5884 57.8709 36.3324 58.4789 35.8204C59.0869 35.2924 59.3909 34.5964 59.3909 33.7324C59.3909 32.8524 59.0869 32.1564 58.4789 31.6444C57.8709 31.1324 57.0549 30.8764 56.0309 30.8764C55.0229 30.8764 54.1989 31.1484 53.5589 31.6924C52.9349 32.2364 52.6229 32.9244 52.6229 33.7564C52.6229 34.5724 52.9269 35.2524 53.5349 35.7964C54.1589 36.3244 55.0149 36.5884 56.1029 36.5884ZM67.801 31.0444C66.601 31.0444 65.633 30.6204 64.897 29.7724C64.161 28.9244 63.793 27.8124 63.793 26.4364C63.793 25.0604 64.161 23.9484 64.897 23.1004C65.633 22.2524 66.601 21.8284 67.801 21.8284C69.001 21.8284 69.969 22.2524 70.705 23.1004C71.457 23.9324 71.833 25.0444 71.833 26.4364C71.833 27.8284 71.457 28.9484 70.705 29.7964C69.969 30.6284 69.001 31.0444 67.801 31.0444ZM77.881 21.9964H80.233L68.761 38.7964H66.409L77.881 21.9964ZM67.801 29.3644C68.457 29.3644 68.961 29.1084 69.313 28.5964C69.681 28.0844 69.865 27.3644 69.865 26.4364C69.865 25.5084 69.681 24.7884 69.313 24.2764C68.961 23.7644 68.457 23.5084 67.801 23.5084C67.177 23.5084 66.673 23.7724 66.289 24.3004C65.921 24.8124 65.737 25.5244 65.737 26.4364C65.737 27.3484 65.921 28.0684 66.289 28.5964C66.673 29.1084 67.177 29.3644 67.801 29.3644ZM78.817 38.9644C77.617 38.9644 76.649 38.5404 75.913 37.6924C75.177 36.8444 74.809 35.7324 74.809 34.3564C74.809 32.9804 75.177 31.8684 75.913 31.0204C76.649 30.1724 77.617 29.7484 78.817 29.7484C80.017 29.7484 80.985 30.1724 81.721 31.0204C82.473 31.8684 82.849 32.9804 82.849 34.3564C82.849 35.7324 82.473 36.8444 81.721 37.6924C80.985 38.5404 80.017 38.9644 78.817 38.9644ZM78.817 37.2844C79.457 37.2844 79.961 37.0284 80.329 36.5164C80.697 35.9884 80.881 35.2684 80.881 34.3564C80.881 33.4444 80.697 32.7324 80.329 32.2204C79.961 31.6924 79.457 31.4284 78.817 31.4284C78.177 31.4284 77.673 31.6844 77.305 32.1964C76.937 32.7084 76.753 33.4284 76.753 34.3564C76.753 35.2844 76.937 36.0044 77.305 36.5164C77.673 37.0284 78.177 37.2844 78.817 37.2844Z" fill="#8C2C3A"/>
<path d="M131.796 105.796L90.6256 54.7964H46.7961" stroke="#8C2C3A"/>
</svg>
